<svg width="281" height="285" viewBox="0 0 281 285" fill="none" xmlns="http://www.w3.org/2000/svg">
<path d="M75.338 9.10304C91.4017 -7.61074 113.497 1.16054 129.622 15.5952C140.762 25.4715 158.426 48.3321 174.182 36.4529C181.014 31.342 185.507 23.3305 191.477 17.1837C200.093 8.48145 212.895 5.23539 223.358 11.1059C239.237 20.0153 244.161 31.0658 248.777 49.1609C251.546 60.0041 252.47 71.1927 251.854 82.4503C250.993 99.0259 243.053 115.049 245.761 131.694C247.238 140.603 251.546 146.681 257.27 152.759C262.563 158.353 271.18 161.806 272.472 170.163C275.18 187.775 267.241 207.458 251.793 213.467C239.791 218.163 224.035 215.055 213.141 208.425C196.524 198.342 184.707 182.871 164.396 192.678C152.271 198.48 148.948 213.743 139.654 223.067C133.377 229.352 125.437 235.775 116.882 235.913C106.788 236.051 96.2639 231.286 88.4475 224.379C77.0613 214.365 70.9066 198.411 65.9213 183.631C62.9056 174.514 54.2275 163.049 35.3326 156.764C17.2994 150.756 12.5603 122.508 31.5782 109.455C57.1817 91.8432 69.6757 78.5826 67.8908 56.2746C67.5216 52.3379 61.4284 23.5377 75.338 9.10304Z" fill="#CDE3F2"/>
<path d="M185.322 30.2303C187.723 25.7524 186.434 19.9386 182.443 17.2448C178.453 14.5509 173.272 15.9972 170.871 20.4751C168.471 24.953 169.76 30.7668 173.75 33.4606C177.74 36.1545 182.921 34.7082 185.322 30.2303Z" fill="#CDE3F2"/>
<path d="M203.971 205.041C204.648 208.287 202.924 211.533 200.032 212.293C197.139 213.053 194.246 211.119 193.569 207.873C192.892 204.627 194.616 201.381 197.508 200.621C200.339 199.861 203.232 201.864 203.971 205.041Z" fill="#CDE3F2"/>
<path d="M188.276 203.729C188.584 204.972 187.846 206.284 186.738 206.56C185.63 206.906 184.46 206.077 184.214 204.834C183.907 203.591 184.645 202.278 185.753 202.002C186.861 201.726 187.969 202.486 188.276 203.729Z" fill="#CDE3F2"/>
<path d="M72.3353 59.8012C75.3972 54.1225 73.7771 46.7337 68.7167 43.2977C63.6562 39.8618 57.0718 41.6798 54.0098 47.3584C50.9479 53.037 52.568 60.4258 57.6284 63.8618C62.6889 67.2978 69.2734 65.4798 72.3353 59.8012Z" fill="#CDE3F2"/>
<path d="M148.148 252.903C214.941 252.903 269.087 250.027 269.087 246.48C269.087 242.933 214.941 240.057 148.148 240.057C81.3548 240.057 27.2084 242.933 27.2084 246.48C27.2084 250.027 81.3548 252.903 148.148 252.903Z" fill="#0474C0"/>
<path d="M228.897 95.1583H222.312V245.582H228.897V95.1583Z" fill="#5590A8"/>
<path d="M228.282 95.1583H221.696V245.582H228.282V95.1583Z" fill="#6BBAD9"/>
<path d="M226.189 245.582H130.484V87.9755C159.288 74.784 194.493 76.5107 220.342 88.1827C221.573 89.1496 224.651 93.0172 226.005 95.0892L226.189 245.582Z" fill="white"/>
<path d="M202.371 81.2071L203.355 80.2402L203.602 81.5524L202.371 81.2071Z" fill="#9C6E16"/>
<path d="M220.527 245.582H124.822V87.9755C156.887 73.2646 192.031 73.2646 220.527 87.9755V245.582Z" fill="white"/>
<path opacity="0.24" d="M130.668 85.4891C128.699 86.2489 126.791 87.0776 124.822 87.9755V245.582H220.527V233.22C137.439 247.723 122.79 146.957 130.668 85.4891Z" fill="white"/>
<path d="M204.402 245.582H140.947V151.446C140.947 132.246 154.549 116.43 171.659 116.016C171.905 116.016 172.151 116.016 172.459 116.016C172.582 116.016 172.705 116.016 172.767 116.016C190.246 115.809 204.402 131.901 204.402 151.446V245.582Z" fill="#C3E1F9"/>
<path d="M174.859 116.016C174.182 115.947 173.444 115.947 172.767 115.947C172.643 115.947 172.52 115.947 172.459 115.947C172.213 115.947 171.966 115.947 171.659 115.947C154.549 116.361 140.947 132.177 140.947 151.377V245.513H144.947V151.446C144.947 132.592 158.18 116.983 174.859 116.016Z" fill="#B8B8B8"/>
<path d="M68.9987 245.582H124.822V87.9755C106.604 62.4905 88.0782 62.8358 68.9987 59.5897V245.582Z" fill="white"/>
<path d="M63.9518 245.582H57.0586V63.8718L58.5973 62.7667H63.9518V245.582Z" fill="#5590A8"/>
<path d="M65.5521 62.7667H58.6588V245.651H65.5521V62.7667Z" fill="#6BBAD9"/>
<path d="M68.9987 245.582H62.1055V62.7666C63.7672 62.0069 66.783 60.6947 68.9987 59.6587V245.582Z" fill="#DEDEDE"/>
<path d="M210.125 100.062L215.911 105.242V85.7654C212.033 84.0388 208.094 82.5193 204.094 81.3452V105.242L210.125 100.062Z" fill="#E6E3CC"/>
<path d="M215.234 102.686L209.387 97.4375L203.355 102.686V80.2402L215.234 83.9698V102.686Z" fill="#0474C0"/>
<path d="M81.4926 80.1021C96.2022 81.5524 110.05 89.4259 117.313 98.2662" stroke="#0474C0" stroke-width="2.0216" stroke-miterlimit="10" stroke-linecap="round"/>
<path d="M81.4926 97.7827C96.2022 99.2331 110.05 107.107 117.313 115.947" stroke="#0474C0" stroke-width="2.0216" stroke-miterlimit="10" stroke-linecap="round"/>
<path d="M81.4926 115.463C96.2022 116.914 110.05 124.787 117.313 133.628" stroke="#0474C0" stroke-width="2.0216" stroke-miterlimit="10" stroke-linecap="round"/>
<path d="M81.4926 133.213C96.2022 134.664 110.05 142.537 117.313 151.377" stroke="#0474C0" stroke-width="2.0216" stroke-miterlimit="10" stroke-linecap="round"/>
<path d="M81.4926 150.894C96.2022 152.344 110.05 160.218 117.313 169.058" stroke="#0474C0" stroke-width="2.0216" stroke-miterlimit="10" stroke-linecap="round"/>
<path d="M81.4926 169.818C96.3869 172.304 110.173 180.247 117.313 186.808" stroke="#0474C0" stroke-width="2.0216" stroke-miterlimit="10" stroke-linecap="round"/>
<path d="M81.4926 191.366C94.1712 192.747 108.758 197.927 117.313 204.488" stroke="#0474C0" stroke-width="2.0216" stroke-miterlimit="10" stroke-linecap="round"/>
<path d="M81.4926 215.401C93.3711 215.884 107.158 219.268 117.313 222.169" stroke="#0474C0" stroke-width="2.0216" stroke-miterlimit="10" stroke-linecap="round"/>
<path opacity="0.62" d="M124.822 87.9755C122.544 84.7985 120.267 82.0359 117.99 79.6186C121.99 129.553 121.56 217.335 92.0171 245.582H124.822V87.9755Z" fill="#B1B1B1" fill-opacity="0.35"/>
<path d="M250.608 210.153L206.949 234.442C206.636 234.609 206.393 235.044 206.393 235.379V236.483C206.393 236.817 206.636 237.252 206.949 237.42L235.638 253.378C235.951 253.545 236.472 253.545 236.785 253.378L280.444 229.123C280.757 228.955 281 228.52 281 228.186V227.082C281 226.747 280.757 226.312 280.444 226.145L251.72 210.153C251.407 209.986 250.921 209.986 250.608 210.153Z" fill="#37474F"/>
<path d="M235.638 251.036L206.949 235.078C206.636 234.91 206.636 234.609 206.949 234.442L250.608 210.153C250.921 209.986 251.442 209.986 251.755 210.153L280.479 226.112C280.792 226.279 280.792 226.58 280.479 226.747L236.785 251.036C236.472 251.203 235.951 251.203 235.638 251.036Z" fill="#455A64"/>
<path d="M236.229 251.17V253.545C236.021 253.545 235.777 253.512 235.638 253.412L206.914 237.453C206.602 237.286 206.358 236.851 206.358 236.516V235.412C206.358 235.111 206.567 234.743 206.81 234.542C206.602 234.71 206.636 234.944 206.914 235.111L235.638 251.07C235.812 251.137 236.021 251.17 236.229 251.17Z" fill="#263238"/>
<path d="M273.567 228.42L272.386 229.089L276.624 198.243L277.839 197.607L273.567 228.42Z" fill="#E0E0E0"/>
<path d="M272.386 229.089L246.788 214.837L251.025 184.024L276.624 198.243L272.386 229.089Z" fill="#FAFAFA"/>
<path d="M277.839 197.607L276.624 198.243L251.025 184.024L252.241 183.355L277.839 197.607Z" fill="#EBEBEB"/>
<path d="M275.304 198.711L251.824 185.697L248.003 213.833L271.448 226.848L275.304 198.711Z" fill="#0474C0"/>
<path opacity="0.8" d="M275.304 198.711L251.824 185.697L248.003 213.833L271.448 226.848L275.304 198.711Z" fill="white"/>
<path d="M250.504 202.993L256.513 197.507C257.138 196.938 257.868 197.105 258.146 197.908L262.452 210.153C262.557 210.454 263.043 210.354 263.008 210.053L262.834 207.477L266.69 204.867C267.385 204.399 268.288 204.599 268.67 205.335L273.185 214.034L271.587 225.743L249.045 213.231L250.504 202.993Z" fill="#0474C0"/>
<path d="M270.893 198.778C269.851 198.176 268.843 198.577 268.67 199.681C268.496 200.752 269.26 202.124 270.302 202.726C271.379 203.328 272.351 202.927 272.525 201.823C272.699 200.752 271.969 199.38 270.893 198.778Z" fill="#0474C0"/>
<path d="M252.901 186.266L249.045 213.231L248.003 213.833L251.824 185.697L252.901 186.266Z" fill="#E0E0E0"/>
<path d="M249.045 213.231L271.587 225.743L271.448 226.848L248.003 213.833L249.045 213.231Z" fill="#EBEBEB"/>
<path d="M267.211 231.966L266.03 232.635L270.267 201.822L271.448 201.153L267.211 231.966Z" fill="#E0E0E0"/>
<path d="M266.03 232.635L240.432 218.417L244.669 187.57L270.267 201.823L266.03 232.635Z" fill="#FAFAFA"/>
<path d="M271.448 201.153L270.267 201.822L244.669 187.57L245.885 186.901L271.448 201.153Z" fill="#EBEBEB"/>
<path d="M268.913 202.257L245.468 189.243L241.613 217.379L265.092 230.427L268.913 202.257Z" fill="#0474C0"/>
<path opacity="0.8" d="M268.913 202.257L245.468 189.243L241.613 217.379L265.092 230.427L268.913 202.257Z" fill="white"/>
<path d="M244.148 206.54L250.157 201.053C250.782 200.484 251.512 200.652 251.789 201.454L256.096 213.699C256.201 214 256.687 213.9 256.652 213.599L256.478 211.023L260.334 208.413C261.028 207.945 261.932 208.146 262.314 208.882L266.829 217.58L265.231 229.29L242.689 216.777L244.148 206.54Z" fill="#0474C0"/>
<path d="M264.536 202.358C263.494 201.756 262.487 202.157 262.313 203.261C262.14 204.332 262.904 205.703 263.946 206.306C265.023 206.908 265.995 206.506 266.169 205.402C266.343 204.298 265.613 202.927 264.536 202.358Z" fill="#0474C0"/>
<path d="M246.545 189.845L242.689 216.777L241.613 217.379L245.468 189.243L246.545 189.845Z" fill="#E0E0E0"/>
<path d="M242.689 216.777L265.231 229.29L265.092 230.427L241.613 217.379L242.689 216.777Z" fill="#EBEBEB"/>
<path d="M260.855 235.513L259.674 236.182L263.911 205.369L265.092 204.7L260.855 235.513Z" fill="#E0E0E0"/>
<path d="M259.674 236.182L234.075 221.963L238.313 191.15L263.911 205.369L259.674 236.182Z" fill="#FAFAFA"/>
<path d="M265.092 204.7L263.911 205.369L238.313 191.15L239.529 190.447L265.092 204.7Z" fill="#EBEBEB"/>
<path d="M262.557 205.837L239.112 192.789L235.256 220.959L258.701 233.974L262.557 205.837Z" fill="#0474C0"/>
<path opacity="0.8" d="M262.557 205.837L239.112 192.789L235.256 220.959L258.701 233.974L262.557 205.837Z" fill="white"/>
<path d="M237.792 210.086L243.801 204.599C244.426 204.031 245.155 204.198 245.433 205.001L249.74 217.246C249.844 217.547 250.331 217.446 250.296 217.145L250.122 214.569L253.978 211.96C254.672 211.491 255.575 211.692 255.957 212.428L260.473 221.127L258.875 232.836L236.333 220.324L237.792 210.086Z" fill="#0474C0"/>
<path d="M258.18 205.904C257.138 205.302 256.131 205.703 255.957 206.807C255.784 207.878 256.548 209.25 257.59 209.852C258.667 210.454 259.639 210.053 259.813 208.949C259.986 207.845 259.222 206.473 258.18 205.904Z" fill="#0474C0"/>
<path d="M240.189 193.392L236.333 220.324L235.256 220.926L239.112 192.789L240.189 193.392Z" fill="#E0E0E0"/>
<path d="M236.333 220.324L258.875 232.87L258.701 233.974L235.256 220.926L236.333 220.324Z" fill="#EBEBEB"/>
<path d="M254.498 239.059L253.283 239.728L257.52 208.915L258.736 208.246L254.498 239.059Z" fill="#E0E0E0"/>
<path d="M253.283 239.728L227.719 225.509L231.957 194.696L257.52 208.915L253.283 239.728Z" fill="#FAFAFA"/>
<path d="M258.736 208.246L257.52 208.915L231.957 194.696L233.172 194.027L258.736 208.246Z" fill="#EBEBEB"/>
<path d="M256.201 209.384L232.756 196.336L228.9 224.506L252.345 237.52L256.201 209.384Z" fill="#0474C0"/>
<path opacity="0.8" d="M256.201 209.384L232.756 196.336L228.9 224.506L252.345 237.52L256.201 209.384Z" fill="white"/>
<path d="M231.401 213.666L237.41 208.179C238.035 207.61 238.764 207.778 239.042 208.581L243.349 220.825C243.453 221.127 243.94 221.026 243.905 220.725L243.731 218.149L247.587 215.539C248.281 215.071 249.184 215.272 249.567 216.008L254.082 224.706L252.484 236.416L229.942 223.903L231.401 213.666Z" fill="#0474C0"/>
<path d="M251.824 209.451C250.782 208.848 249.775 209.25 249.601 210.354C249.428 211.424 250.192 212.796 251.234 213.398C252.31 214.001 253.283 213.599 253.457 212.495C253.596 211.391 252.866 210.019 251.824 209.451Z" fill="#0474C0"/>
<path d="M233.798 196.938L229.977 223.87L228.9 224.472L232.756 196.336L233.798 196.938Z" fill="#E0E0E0"/>
<path d="M229.977 223.87L252.484 236.416L252.345 237.52L228.9 224.472L229.977 223.87Z" fill="#EBEBEB"/>
<path d="M248.108 242.605L246.927 243.274L251.164 212.461L252.38 211.792L248.108 242.605Z" fill="#E0E0E0"/>
<path d="M246.927 243.274L221.328 229.056L225.566 198.243L251.164 212.461L246.927 243.274Z" fill="#FAFAFA"/>
<path d="M252.38 211.792L251.164 212.461L225.566 198.243L226.781 197.574L252.38 211.792Z" fill="#EBEBEB"/>
<path d="M249.844 212.93L226.365 199.882L222.544 228.052L245.989 241.066L249.844 212.93Z" fill="#0474C0"/>
<path opacity="0.8" d="M249.844 212.93L226.365 199.882L222.544 228.052L245.989 241.066L249.844 212.93Z" fill="white"/>
<path d="M225.045 217.212L231.054 211.725C231.679 211.157 232.408 211.324 232.686 212.127L236.993 224.372C237.097 224.673 237.584 224.572 237.549 224.271L237.375 221.695L241.231 219.086C241.925 218.617 242.828 218.818 243.21 219.554L247.726 228.253L246.128 239.962L223.586 227.45L225.045 217.212Z" fill="#0474C0"/>
<path d="M245.433 212.997C244.391 212.395 243.384 212.796 243.21 213.9C243.037 214.971 243.801 216.342 244.843 216.945C245.92 217.547 246.892 217.145 247.066 216.041C247.239 214.937 246.51 213.599 245.433 212.997Z" fill="#0474C0"/>
<path d="M227.441 200.484L223.586 227.45L222.544 228.018L226.365 199.882L227.441 200.484Z" fill="#E0E0E0"/>
<path d="M223.586 227.45L246.128 239.962L245.989 241.066L222.544 228.018L223.586 227.45Z" fill="#EBEBEB"/>
<path d="M241.751 246.152L240.571 246.821L244.808 216.008L245.989 215.339L241.751 246.152Z" fill="#E0E0E0"/>
<path d="M240.571 246.821L214.972 232.602L219.21 201.789L244.808 216.008L240.571 246.821Z" fill="#FAFAFA"/>
<path d="M245.989 215.339L244.808 216.008L219.21 201.789L220.425 201.12L245.989 215.339Z" fill="#EBEBEB"/>
<path d="M243.453 216.476L220.009 203.428L216.153 231.598L239.633 244.613L243.453 216.476Z" fill="#0474C0"/>
<path opacity="0.8" d="M243.453 216.476L220.009 203.428L216.153 231.598L239.633 244.613L243.453 216.476Z" fill="white"/>
<path d="M218.689 220.759L224.697 215.272C225.323 214.703 226.052 214.87 226.33 215.673L230.637 227.918C230.741 228.219 231.227 228.119 231.193 227.818L231.019 225.242L234.874 222.632C235.569 222.164 236.472 222.364 236.854 223.1L241.369 231.799L239.772 243.509L217.23 230.996L218.689 220.759Z" fill="#0474C0"/>
<path d="M239.077 216.543C238.035 215.941 237.028 216.342 236.854 217.446C236.68 218.517 237.445 219.889 238.487 220.491C239.563 221.093 240.536 220.692 240.71 219.588C240.883 218.484 240.154 217.145 239.077 216.543Z" fill="#0474C0"/>
<path d="M221.085 204.031L217.23 230.996L216.153 231.565L220.009 203.428L221.085 204.031Z" fill="#E0E0E0"/>
<path d="M217.23 230.996L239.772 243.509L239.633 244.613L216.153 231.565L217.23 230.996Z" fill="#EBEBEB"/>
<path d="M83.6952 111.797L80.4837 113.561L77.2423 113.301C77.2122 113.301 77.1522 113.301 77.1222 113.33C77.3923 113.185 80.2136 111.624 80.3337 111.566C80.3637 111.537 80.4237 111.537 80.4837 111.537L83.6952 111.797Z" fill="#0474C0"/>
<path opacity="0.5" d="M83.6952 111.797L80.4837 113.561L77.2423 113.301C77.2122 113.301 77.1522 113.301 77.1222 113.33C77.3923 113.185 80.2136 111.624 80.3337 111.566C80.3637 111.537 80.4237 111.537 80.4837 111.537L83.6952 111.797Z" fill="white"/>
<path d="M93.7498 112.405L82.0445 105.9L79.7334 107.201L80.6038 123.911L85.5861 129.606L90.5684 129.461L92.8794 128.16L93.7498 112.405Z" fill="#0474C0"/>
<path opacity="0.5" d="M93.7498 112.405L91.4388 113.705L79.7334 107.201L82.0445 105.9L93.7498 112.405Z" fill="white"/>
<path opacity="0.15" d="M93.7498 112.405L91.4388 113.705L90.5684 129.461L92.8794 128.16L93.7498 112.405Z" fill="black"/>
<path d="M79.7334 107.201L80.0636 113.532L77.2123 113.301C77.0022 113.272 76.8821 113.532 77.0022 113.677L80.2136 117.03L80.5738 123.911L85.5861 129.606L90.5684 129.461L91.4388 113.705L79.7334 107.201Z" fill="#0474C0"/>
<path opacity="0.5" d="M85.5862 112.087L90.2383 114.66L89.548 127.64L85.5862 127.9V112.087Z" fill="white"/>
<path d="M89.1277 115.324L88.6475 125.934L85.5861 126.108L82.5246 122.552L82.3746 119.545L83.4851 120.152L83.5751 121.945L85.5861 124.373L87.597 124.2L87.9271 116.307L82.1345 113.069L82.0444 111.393L89.1277 115.324Z" fill="white"/>
<path d="M82.7574 138.643L79.516 140.435L76.2745 140.175C76.2445 140.175 76.1844 140.175 76.1544 140.204C76.4245 140.059 79.2458 138.498 79.3659 138.441C79.3959 138.412 79.4559 138.412 79.516 138.412L82.7574 138.643Z" fill="#0474C0"/>
<path d="M92.8121 139.279L81.1067 132.774L78.7957 134.075L79.6661 150.785L84.6483 156.48L89.6306 156.336L91.9417 155.035L92.8121 139.279Z" fill="#0474C0"/>
<path opacity="0.35" d="M92.8121 139.279L90.501 140.58L89.6306 156.336L91.9417 155.035L92.8121 139.279Z" fill="black"/>
<path d="M78.7957 134.075L79.1258 140.406L76.2745 140.175C76.0644 140.146 75.9444 140.406 76.0644 140.551L79.2759 143.905L79.636 150.785L84.6183 156.48L89.6006 156.336L90.471 140.58L78.7957 134.075Z" fill="#0474C0"/>
<path opacity="0.25" d="M78.7957 134.075L79.1258 140.406L76.2745 140.175C76.0644 140.146 75.9444 140.406 76.0644 140.551L79.2759 143.905L79.636 150.785L84.6183 156.48L89.6006 156.336L90.471 140.58L78.7957 134.075Z" fill="black"/>
<path opacity="0.7" d="M84.6483 138.961L89.3004 141.534L88.6101 154.486L84.6483 154.775V138.961Z" fill="#0474C0"/>
<path d="M81.1067 138.267L81.1667 139.915L86.9894 143.153L86.8393 146.449L81.3168 143.384L81.4068 145.032L86.7793 148.039L86.6592 151.045L84.6483 151.248L82.6374 148.819L82.5473 147.027L81.4368 146.42L81.5869 149.426L84.6483 152.982L87.7097 152.809L88.1899 142.199L81.1067 138.267Z" fill="white"/>
<path d="M93.7498 85.0854L82.0445 78.5806L79.7334 79.8816L80.6038 96.5916L85.5861 102.287L90.5684 102.142L92.8794 100.841L93.7498 85.0854Z" fill="#0474C0"/>
<path opacity="0.25" d="M93.7498 85.0854L91.4388 86.3863L79.7334 79.8816L82.0445 78.5806L93.7498 85.0854Z" fill="black"/>
<path opacity="0.55" d="M93.7498 85.0854L91.4388 86.3864L90.5684 102.142L92.8794 100.841L93.7498 85.0854Z" fill="black"/>
<path d="M83.6952 84.4782L80.4837 86.2417L77.2423 85.9815C77.2122 85.9815 77.1522 85.9815 77.1222 86.0104C77.3923 85.8659 80.2136 84.3047 80.3337 84.2469C80.3637 84.218 80.4237 84.218 80.4837 84.218L83.6952 84.4782Z" fill="#0474C0"/>
<path opacity="0.25" d="M83.6952 84.4782L80.4837 86.2417L77.2423 85.9815C77.2122 85.9815 77.1522 85.9815 77.1222 86.0104C77.3923 85.8659 80.2136 84.3047 80.3337 84.2469C80.3637 84.218 80.4237 84.218 80.4837 84.218L83.6952 84.4782Z" fill="black"/>
<path d="M79.7334 79.8816L80.0636 86.2129L77.2123 85.9816C77.0022 85.9527 76.8821 86.2129 77.0022 86.3574L80.2136 89.711L80.5738 96.5916L85.5561 102.287L90.5384 102.142L91.4088 86.3863L79.7334 79.8816Z" fill="#0474C0"/>
<path opacity="0.4" d="M79.7334 79.8816L80.0636 86.2129L77.2123 85.9816C77.0022 85.9527 76.8821 86.2129 77.0022 86.3574L80.2136 89.711L80.5738 96.5916L85.5561 102.287L90.5384 102.142L91.4088 86.3863L79.7334 79.8816Z" fill="black"/>
<path opacity="0.5" d="M85.5861 84.7673L90.2382 87.3403L89.5479 100.321L85.5861 100.581V84.7673Z" fill="#0474C0"/>
<path d="M89.1277 88.0052L82.0444 84.0735L82.3446 90.8673L87.717 93.8451L87.597 96.8806L85.5861 97.0541L83.5751 94.6256L83.4851 92.8332L82.3746 92.2261L82.5246 95.2328L85.5861 98.7887L88.6475 98.6152L88.8876 92.891L83.365 89.7977L83.215 86.3574L89.0376 89.5953L89.1277 88.0052Z" fill="white"/>
<path d="M148.154 248.026C146.656 252.354 145.372 257.918 143.34 266.264C141.468 274.095 141.414 279.66 144.089 281.566C146.656 283.421 154.305 282.287 159.065 272.498C160.563 269.407 166.179 259.927 166.179 259.927C166.179 259.927 170.351 258.485 171.795 257.403C171.795 257.403 185.702 257.815 192.441 256.475C199.181 255.136 206.402 247.201 203.62 246.429C198.646 245.038 185.381 244.471 174.149 243.801L148.154 248.026Z" fill="#37474F"/>
<path d="M185.862 254.826C182.814 255.496 178.321 254.62 175.753 253.899C176.021 252.611 175.646 251.323 175.646 251.323C175.539 252.611 174.951 253.848 174.523 254.569C174.095 254.775 173.774 254.981 173.507 255.136C171.795 255.96 167.195 258.278 166.286 257.557C164.307 254.93 161.098 254.363 161.098 254.363C162.542 255.29 166.767 258.227 165.27 261.576L166.179 260.03C166.179 260.03 170.351 258.587 171.795 257.506C171.795 257.506 179.551 257.712 186.344 257.299L194.367 251.941C194.367 251.89 190.516 251.684 185.862 254.826Z" fill="#263238"/>
<path d="M178.053 263.946C176.983 264.873 175.7 265.749 174.416 266.007C173.935 266.11 173.507 266.11 173.079 266.007C171.528 265.697 169.014 265.697 168.158 268.686C167.142 272.086 163.237 273.735 162.167 276.053C161.633 277.238 161.365 280.587 161.9 282.648C162.328 284.348 165.751 283.06 167.035 280.999C168.318 278.938 170.993 276.208 172.811 274.611C175.7 273.013 178.963 270.695 180.353 269.768L178.053 263.946Z" fill="#F28F8F"/>
<path d="M198.593 245.295C207.578 245.862 207.846 250.447 205.599 253.951C203.192 257.66 194.367 262.709 189.553 265.388C185.167 267.81 177.679 272.138 177.679 272.138C177.679 272.138 173.881 269.304 174.363 266.058C179.337 262.709 186.023 253.229 194.26 251.89L198.593 245.295Z" fill="#263238"/>
<path d="M163.184 283.73C162.809 283.833 162.114 283.678 161.686 283.421C161.312 283.163 160.402 280.741 161.151 277.805C161.9 274.868 163.505 273.065 164.467 272.086C165.43 271.107 165.805 269.922 166.125 268.48C166.5 267.037 167.57 265.234 168.372 265.028C169.121 264.822 170.297 265.388 170.297 265.388L163.184 283.73Z" fill="#263238"/>
<path d="M175.058 273.425C174.844 274.353 174.095 274.61 173.239 274.92C172.063 275.383 170.993 276.517 169.923 277.805C169.228 278.681 168.639 279.556 167.998 280.484C167.356 281.411 166.821 282.699 166.126 283.421C165.109 284.451 163.023 284.245 162.488 282.802C162.007 281.566 161.793 278.423 163.291 275.435C164.093 273.786 166.34 272.241 166.928 270.025C167.302 268.531 167.837 266.779 169.014 265.646C169.709 264.976 170.298 265.131 171.153 265.388C172.277 265.697 173.4 265.903 174.577 266.058C174.577 266.985 174.256 267.861 173.721 268.634C173.56 268.892 173.346 269.149 173.293 269.458C173.239 269.664 173.293 269.871 173.346 270.077C173.4 270.386 173.507 270.695 173.828 270.798C173.935 270.849 174.095 270.798 174.202 270.849C174.684 270.901 174.898 271.416 175.005 271.828C175.111 272.292 175.218 272.807 175.218 273.271C175.058 273.322 175.058 273.374 175.058 273.425Z" fill="#0474C0"/>
<path opacity="0.4" d="M175.058 273.425C174.844 274.353 174.095 274.61 173.239 274.92C172.063 275.383 170.993 276.517 169.923 277.805C169.228 278.681 168.639 279.556 167.998 280.484C167.356 281.411 166.821 282.699 166.126 283.421C165.109 284.451 163.023 284.245 162.488 282.802C162.007 281.566 161.793 278.423 163.291 275.435C164.093 273.786 166.34 272.241 166.928 270.025C167.302 268.531 167.837 266.779 169.014 265.646C169.709 264.976 170.298 265.131 171.153 265.388C172.277 265.697 173.4 265.903 174.577 266.058C174.577 266.985 174.256 267.861 173.721 268.634C173.56 268.892 173.346 269.149 173.293 269.458C173.239 269.664 173.293 269.871 173.346 270.077C173.4 270.386 173.507 270.695 173.828 270.798C173.935 270.849 174.095 270.798 174.202 270.849C174.684 270.901 174.898 271.416 175.005 271.828C175.111 272.292 175.218 272.807 175.218 273.271C175.058 273.322 175.058 273.374 175.058 273.425Z" fill="black"/>
<path d="M170.939 276.62C170.939 276.62 171.528 276.517 171.849 275.692C172.116 275.074 171.795 273.838 171.314 273.013C171.1 272.704 170.618 272.653 170.405 272.962C170.244 273.116 170.244 273.374 170.351 273.58C170.725 274.095 171.26 275.28 170.939 276.62Z" fill="#F5F5F5"/>
<path d="M169.388 278.423C169.388 278.423 170.137 278.114 170.298 277.29C170.298 277.29 170.565 275.589 169.709 274.353C169.495 274.044 169.067 273.992 168.8 274.301C168.639 274.456 168.639 274.713 168.746 274.92C169.121 275.435 169.923 276.517 169.388 278.423Z" fill="#F5F5F5"/>
<path d="M167.944 280.484C167.944 280.484 168.639 280.123 168.8 279.299C168.8 279.299 169.014 277.702 168.212 276.465C167.998 276.156 167.57 276.105 167.302 276.414C167.142 276.568 167.142 276.826 167.249 277.032C167.623 277.547 168.425 278.578 167.944 280.484Z" fill="#F5F5F5"/>
<path d="M174.469 265.234C176.074 264.822 178.374 264.306 179.337 263.07C180.3 261.833 182.279 260.648 185.007 262.349C186.718 263.431 188.751 263.791 190.783 263.894C191.639 263.946 192.655 263.843 193.511 263.997C194.527 264.203 195.597 264.822 196.506 265.337C197.095 265.646 197.63 266.058 198.004 266.573C198.699 267.501 198.699 268.84 198.058 269.768C197.951 269.922 197.79 270.077 197.63 270.231C197.416 270.386 197.148 270.437 196.934 270.489C196.025 270.695 195.223 270.386 194.313 270.18C193.565 269.974 192.816 269.819 192.067 269.716C190.355 269.407 188.644 269.201 186.932 269.149C186.183 269.098 184.686 268.995 183.937 269.046C180.888 269.252 176.556 270.901 176.556 270.901L174.469 265.234Z" fill="#FFA8A7"/>
<path d="M142.644 279.35C143.126 282.339 146.602 283.781 154.037 282.339C161.472 280.896 179.176 270.18 179.176 270.18C179.176 270.18 178.481 266.058 174.416 264.976C174.416 264.976 170.725 265.646 164.681 266.882C162.381 267.346 159.44 268.119 156.605 269.046C152.54 274.301 148.261 272.189 146.763 274.044C144.249 277.135 142.644 279.35 142.644 279.35Z" fill="#37474F"/>
<path d="M198.86 270.025C199.234 269.871 199.609 269.304 199.769 268.84C199.876 268.377 198.913 266.007 196.346 264.306C193.779 262.555 191.318 262.246 189.927 262.091C188.537 261.936 187.467 261.318 186.183 260.442C184.953 259.566 182.867 258.948 182.172 259.257C181.476 259.618 180.995 260.751 180.995 260.751L198.86 270.025Z" fill="#263238"/>
<path d="M182.867 269.819C183.616 270.386 184.418 270.077 185.274 269.768C186.451 269.355 188.055 269.51 189.713 269.819C190.837 270.025 191.906 270.334 193.03 270.592C194.153 270.901 195.437 271.519 196.453 271.622C197.897 271.725 199.341 270.283 198.753 268.84C198.272 267.604 196.292 265.079 193.137 263.791C191.425 263.07 188.644 263.328 186.665 262.039C185.327 261.164 183.723 260.185 182.118 260.03C181.155 259.979 180.781 260.494 180.3 261.164C179.658 262.091 178.962 263.018 178.214 263.843C178.855 264.512 179.711 265.028 180.621 265.285C180.941 265.388 181.262 265.44 181.53 265.646C181.69 265.8 181.797 265.955 181.904 266.161C182.065 266.419 182.225 266.728 182.011 266.985C181.958 267.089 181.851 267.14 181.744 267.243C181.423 267.604 181.637 268.119 181.851 268.48C182.065 268.892 182.332 269.355 182.707 269.665C182.814 269.716 182.867 269.768 182.867 269.819Z" fill="#0474C0"/>
<path opacity="0.4" d="M182.867 269.819C183.616 270.386 184.418 270.077 185.274 269.768C186.451 269.355 188.055 269.51 189.713 269.819C190.837 270.025 191.906 270.334 193.03 270.592C194.153 270.901 195.437 271.519 196.453 271.622C197.897 271.725 199.341 270.283 198.753 268.84C198.272 267.604 196.292 265.079 193.137 263.791C191.425 263.07 188.644 263.328 186.665 262.039C185.327 261.164 183.723 260.185 182.118 260.03C181.155 259.979 180.781 260.494 180.3 261.164C179.658 262.091 178.962 263.018 178.214 263.843C178.855 264.512 179.711 265.028 180.621 265.285C180.941 265.388 181.262 265.44 181.53 265.646C181.69 265.8 181.797 265.955 181.904 266.161C182.065 266.419 182.225 266.728 182.011 266.985C181.958 267.089 181.851 267.14 181.744 267.243C181.423 267.604 181.637 268.119 181.851 268.48C182.065 268.892 182.332 269.355 182.707 269.665C182.814 269.716 182.867 269.768 182.867 269.819Z" fill="black"/>
<path d="M188.162 269.613C188.162 269.613 187.627 269.922 186.825 269.51C186.237 269.201 185.595 268.067 185.381 267.14C185.327 266.779 185.648 266.419 186.023 266.47C186.237 266.522 186.451 266.676 186.451 266.934C186.611 267.552 186.986 268.789 188.162 269.613Z" fill="#F5F5F5"/>
<path d="M190.516 269.974C190.516 269.974 189.713 270.231 189.072 269.664C189.072 269.664 187.734 268.531 187.521 267.088C187.467 266.728 187.788 266.419 188.162 266.47C188.376 266.522 188.537 266.676 188.59 266.882C188.697 267.552 188.858 268.892 190.516 269.974Z" fill="#F5F5F5"/>
<path d="M193.03 270.592C193.03 270.592 192.228 270.746 191.586 270.231C191.586 270.231 190.302 269.149 190.088 267.707C190.035 267.346 190.355 267.037 190.73 267.088C190.944 267.14 191.104 267.295 191.158 267.501C191.265 268.17 191.372 269.51 193.03 270.592Z" fill="#F5F5F5"/>
<path d="M161.793 267.552C161.793 267.552 156.819 268.48 153.075 270.901C153.075 270.901 156.872 266.625 162.756 265.852L161.793 267.552Z" fill="#263238"/>
<path d="M180.514 230.818L174.309 213.919L172.651 214.486L173.614 233.188L174.684 235.97C177.465 234.527 179.765 233.548 180.514 230.818Z" fill="#FFA8A7"/>
<path d="M165.858 209.437C169.709 209.488 173.239 210.828 174.684 213.713C176.128 216.598 180.621 229.839 180.621 229.839C180.621 229.839 176.93 234.012 171.528 233.652L165.858 209.437Z" fill="#0474C0"/>
<path opacity="0.1" d="M165.858 209.437C169.709 209.488 173.239 210.828 174.684 213.713C176.128 216.598 180.621 229.839 180.621 229.839C180.621 229.839 176.93 234.012 171.528 233.652L165.858 209.437Z" fill="black"/>
<path d="M157.942 209.694C152.54 210.673 148.903 211.755 147.886 212.734C145.586 217.268 148.582 232.467 148.582 232.467L149.116 239.731L148.154 248.077C153.984 252.817 171.902 250.499 175.058 243.853C175.058 243.853 174.149 222.162 174.149 218.298C174.149 214.434 171.956 209.849 165.805 209.488L157.942 209.694Z" fill="#FAFAFA"/>
<path d="M154.037 244.78C152.486 242.462 152.54 236.588 152.54 236.588C152.54 236.588 155.267 221.235 154.626 217.577L147.405 224.223C147.886 228.602 148.635 232.467 148.635 232.467L149.17 239.731L148.207 248.077C152.861 251.89 165.27 251.169 171.635 247.304C162.274 250.911 155.588 247.098 154.037 244.78Z" fill="#EBEBEB"/>
<path d="M155 197.432C155 197.432 155.802 203.203 156.23 204.182C156.658 205.161 157.675 205.47 157.675 205.47L157.888 201.451L155 197.432Z" fill="#263238"/>
<path d="M157.193 189.395C157.193 189.395 155.856 189.086 154.733 190.013C153.609 190.941 153.93 194.187 155 197.381L157.354 197.793L157.193 189.395Z" fill="#263238"/>
<path d="M158.049 197.948C157.568 198.205 156.926 197.278 156.391 196.608C155.856 195.99 153.984 195.011 152.914 196.917C151.791 198.823 153.395 201.554 154.893 202.121C157.407 203.1 157.942 201.503 157.942 201.503L157.407 210.673C159.761 215.619 169.121 213.816 165.912 210.467L166.072 208.149C166.072 208.149 168.8 208.509 169.977 208.406C171.902 208.252 172.812 207.067 173.507 205.109C174.684 201.966 175.218 199.442 174.951 193.105C174.63 186.149 166.34 185.48 161.633 187.901C156.926 190.271 158.049 197.948 158.049 197.948Z" fill="#FFA8A7"/>
<path d="M157.889 185.686C159.493 185.119 161.205 184.861 162.916 184.604C166.607 184.089 170.351 183.676 173.774 182.285C174.202 182.131 174.63 181.925 175.112 182.028C175.967 182.182 176.288 183.264 176.235 184.089C176.181 184.861 176.021 185.634 175.753 186.407C176.288 185.892 177.198 186.046 177.679 186.562C178.16 187.077 178.214 187.85 178.107 188.571C177.786 190.116 176.449 191.353 174.898 191.92C173.4 192.486 171.688 192.538 170.03 192.486C167.73 192.383 165.484 192.074 163.237 191.508C162.702 191.353 162.168 191.198 161.579 191.25C161.044 191.301 160.456 191.611 160.295 192.126C159.975 193.002 159.279 198.875 157.995 198.823C157.782 198.823 156.979 197.278 156.444 196.711C155.749 195.99 155.428 190.889 155.375 189.91C155.375 189.807 155.321 189.756 155.268 189.704C154.519 188.519 155.642 186.716 156.712 186.201C157.086 185.995 157.461 185.84 157.889 185.686Z" fill="#263238"/>
<path d="M155.749 189.807C155.054 190.477 153.984 190.477 153.288 189.807C152.593 189.138 152.593 188.107 153.288 187.437L155.749 189.807Z" fill="#263238"/>
<path d="M166.072 208.149C166.072 208.149 161.847 207.427 160.402 206.603C159.44 206.036 158.691 205.057 158.477 204.491C158.477 204.491 158.637 205.727 159.44 206.861C160.402 208.303 165.912 209.643 165.912 209.643L166.072 208.149Z" fill="#F28F8F"/>
<path d="M166.446 197.432C166.393 197.896 166.019 198.257 165.537 198.205C165.056 198.154 164.735 197.742 164.735 197.278C164.788 196.814 165.163 196.454 165.644 196.505C166.179 196.557 166.5 196.969 166.446 197.432Z" fill="#263238"/>
<path d="M165.805 194.29L163.879 195.114C163.665 194.599 163.879 193.981 164.414 193.723C164.949 193.517 165.591 193.774 165.805 194.29Z" fill="#263238"/>
<path d="M166.072 203.151L167.944 203.976C167.73 204.491 167.088 204.748 166.553 204.491C166.019 204.336 165.805 203.718 166.072 203.151Z" fill="#F28F8F"/>
<path d="M174.042 195.578L172.491 194.238C172.865 193.826 173.507 193.775 173.935 194.135C174.363 194.496 174.416 195.166 174.042 195.578Z" fill="#263238"/>
<path d="M173.347 197.742C173.293 198.205 172.919 198.566 172.437 198.514C171.956 198.463 171.635 198.051 171.635 197.587C171.688 197.123 172.063 196.763 172.544 196.814C173.026 196.866 173.4 197.278 173.347 197.742Z" fill="#263238"/>
<path d="M169.014 196.866L168.907 201.863L171.635 201.142L169.014 196.866Z" fill="#F28F8F"/>
<path d="M141.682 247.408C138.205 244.059 137.67 242.925 138.151 240.864C139.061 236.743 142.858 223.553 144.303 219.638C146.121 214.692 146.923 212.734 149.919 212.116C152.379 213.971 154.733 220.926 151.47 227.16L147.512 240.813" fill="#FFA8A7"/>
<path d="M152.54 210.828C147.886 211.343 145.907 213.146 144.249 217.989C142.591 222.832 139.596 234.012 139.596 234.012C139.596 234.012 143.5 238.082 149.01 237.67L153.556 223.09C153.556 223.09 156.765 212.528 152.54 210.828Z" fill="#0474C0"/>
<path opacity="0.1" d="M152.54 210.828C147.886 211.343 145.907 213.146 144.249 217.989C142.591 222.832 139.596 234.012 139.596 234.012C139.596 234.012 143.5 238.082 149.01 237.67L153.556 223.09C153.556 223.09 156.765 212.528 152.54 210.828Z" fill="black"/>
<path d="M151.47 261.061V261.576C151.47 262.091 151.737 262.606 152.219 262.864L166.821 270.953C167.035 271.107 167.302 271.159 167.57 271.159C167.837 271.159 168.105 271.107 168.319 270.953L195.062 256.063C195.544 255.806 195.811 255.29 195.811 254.775V254.466L167.516 270.18L151.47 261.061Z" fill="#EBEBEB"/>
<path d="M195.811 254.466L179.979 245.656C179.711 245.501 179.337 245.501 179.07 245.656L151.577 260.958C151.416 261.009 151.416 261.215 151.577 261.318L167.57 270.231L195.811 254.466Z" fill="#FAFAFA"/>
<path d="M188.804 245.501C186.611 241.792 180.567 230.818 180.567 230.818L174.737 235.97C177.091 240.298 183.563 248.953 183.563 248.953C186.451 250.86 190.035 247.665 188.804 245.501Z" fill="#FFA8A7"/>
<path d="M167.409 268.892L158.851 264.152L183.883 250.241L192.441 254.93L167.409 268.892Z" fill="#E0E0E0"/>
<path d="M163.184 255.651L163.344 255.754L167.57 258.072L175.004 253.951L175.165 253.848L170.832 251.426L163.184 255.651Z" fill="#E0E0E0"/>
<path d="M163.344 255.754L167.57 258.072L175.004 253.951L170.832 251.581L163.344 255.754Z" fill="#E6E6E6"/>
<path d="M167.57 270.18V271.159C167.837 271.159 168.105 271.107 168.319 270.953L195.062 256.063C195.544 255.806 195.811 255.29 195.811 254.775V254.466L167.57 270.18Z" fill="#EBEBEB"/>
<path d="M167.57 270.18V271.159C167.837 271.159 168.105 271.107 168.319 270.953L195.062 256.063C195.544 255.806 195.811 255.29 195.811 254.775V254.466L167.57 270.18Z" fill="#E0E0E0"/>
<path d="M167.998 270.386C168.479 270.592 169.067 270.54 169.549 270.283L196.186 255.496C196.667 255.239 196.988 254.775 197.041 254.26L199.983 237.516C199.983 237.413 199.983 237.31 199.983 237.207C199.983 236.743 199.769 236.279 199.448 235.97L171.795 251.375C171.474 251.581 171.207 251.89 171.153 252.302L167.998 270.386Z" fill="#0474C0"/>
<g opacity="0.7">
<path d="M167.998 270.386C168.479 270.592 169.067 270.54 169.549 270.283L196.186 255.496C196.667 255.239 196.988 254.775 197.041 254.26L199.983 237.516C199.983 237.413 199.983 237.31 199.983 237.207C199.983 236.743 199.769 236.279 199.448 235.97L171.795 251.375C171.474 251.581 171.207 251.89 171.153 252.302L167.998 270.386Z" fill="white"/>
</g>
<path d="M167.57 270.18L167.73 270.283C167.837 270.334 167.891 270.386 167.998 270.386L171.153 252.251C171.207 251.89 171.474 251.529 171.795 251.323L199.448 235.919C199.341 235.816 199.234 235.712 199.074 235.661L171.367 251.066C171.046 251.272 170.779 251.581 170.725 251.993L167.57 270.18Z" fill="#FAFAFA"/>
<path d="M182.974 254.93C183.188 253.796 184.365 252.302 185.649 251.581C186.932 250.86 187.842 251.169 187.628 252.302C187.414 253.436 186.237 254.93 184.953 255.651C183.669 256.372 182.814 256.063 182.974 254.93Z" fill="#0474C0"/>
<path d="M147.512 240.761C147.512 240.761 149.491 243.956 151.844 246.944C154.144 249.932 156.658 253.075 158.53 253.59C160.295 254.105 162.381 254.672 162.97 255.239C163.558 255.754 166.446 258.845 166.981 259.721C167.516 260.597 168.853 262.4 166.981 262.967C165.27 263.482 163.879 262.761 162.488 261.885C161.579 261.267 160.616 260.391 160.616 260.391C160.616 260.391 158.584 260.7 156.605 259.618C155.535 259.051 153.77 258.021 153.77 258.021C152.326 257.042 145.051 250.55 141.735 247.356" fill="#FFA8A7"/>
<path d="M101.145 190.428L100.677 245.436C100.67 246.171 100.128 247.068 99.4634 247.452L66.5254 266.501C66.3975 266.577 66.2444 266.63 66.1428 266.608C66.0919 266.61 66.041 266.611 65.9903 266.588C65.9648 266.588 65.9141 266.565 65.8887 266.566C65.8632 266.566 65.838 266.542 65.838 266.542C65.8128 266.519 65.7873 266.519 65.7621 266.495C65.7368 266.471 65.7114 266.472 65.6861 266.448C65.5849 266.377 65.5349 266.28 65.4596 266.16C65.3847 265.99 65.3354 265.795 65.3373 265.574L65.8035 210.836C65.8097 210.101 66.3518 209.204 67.0167 208.82L99.9799 189.795C100.287 189.616 100.567 189.584 100.77 189.677C100.795 189.701 100.846 189.7 100.871 189.724C100.896 189.748 100.922 189.772 100.947 189.796C100.972 189.795 100.972 189.819 100.972 189.844C100.997 189.868 100.997 189.892 101.022 189.892C101.047 189.94 101.072 189.989 101.098 190.037C101.097 190.061 101.122 190.11 101.122 190.134L101.122 190.159C101.122 190.183 101.147 190.232 101.147 190.256C101.146 190.33 101.146 190.379 101.145 190.428Z" fill="#455A64"/>
<path d="M100.77 189.677C100.567 189.584 100.287 189.616 99.9799 189.795L67.0164 208.844C66.3515 209.229 65.8095 210.125 65.8032 210.861L65.7715 214.589L64.2771 213.768L64.3086 210.065C64.3149 209.329 64.8569 208.433 65.4963 208.049L98.4598 189C98.7924 188.796 99.0978 188.788 99.3258 188.905C99.5282 189.047 100.516 189.561 100.77 189.677Z" fill="#0474C0"/>
<path d="M101.145 190.428C101.151 189.717 100.619 189.436 99.9544 189.796L67.0164 208.844C66.3515 209.229 65.8095 210.125 65.8032 210.861L65.7715 214.589L101.113 194.156L101.145 190.428Z" fill="#0474C0"/>
<g opacity="0.4">
<path d="M99.9799 189.795L67.0164 208.844C66.684 209.024 66.4013 209.35 66.1691 209.724L64.6745 208.928C64.8811 208.58 65.1892 208.253 65.4961 208.074L98.4598 189C98.7924 188.796 99.0978 188.788 99.3258 188.905C99.5284 189.022 100.516 189.537 100.77 189.653C100.567 189.585 100.287 189.616 99.9799 189.795Z" fill="white"/>
</g>
<path opacity="0.15" d="M64.2771 213.768L64.3087 210.065C64.3118 209.697 64.4681 209.277 64.6748 208.904L66.1694 209.699C65.9372 210.073 65.8066 210.469 65.8035 210.837L65.7717 214.564L64.2771 213.768Z" fill="black"/>
<path d="M93.9823 194.851C93.5988 195.056 93.3136 195.677 93.3088 196.241C93.3042 196.78 93.6071 197.067 93.9654 196.837C94.3488 196.631 94.634 196.011 94.6388 195.447C94.6434 194.907 94.3403 194.645 93.9823 194.851Z" fill="#455A64"/>
<path d="M96.3862 193.441C96.0027 193.647 95.7175 194.267 95.7127 194.831C95.7079 195.395 96.0111 195.657 96.3693 195.428C96.7527 195.222 97.0379 194.602 97.0427 194.038C97.0728 193.498 96.7697 193.236 96.3862 193.441Z" fill="#455A64"/>
<path d="M98.8156 192.031C98.4322 192.237 98.147 192.857 98.1422 193.422C98.1376 193.961 98.4405 194.248 98.7987 194.018C99.1822 193.812 99.4674 193.192 99.4722 192.628C99.4768 192.088 99.1991 191.826 98.8156 192.031Z" fill="#455A64"/>
<path d="M65.7873 266.519C65.7366 266.496 65.6859 266.473 65.6352 266.449C65.534 266.378 65.4071 266.333 65.2805 266.262C65.2046 266.215 65.1539 266.192 65.0777 266.169C65.0777 266.169 65.0777 266.169 65.0523 266.17C64.9509 266.123 64.8497 266.052 64.7483 266.006C64.6469 265.959 64.571 265.912 64.495 265.865C64.4191 265.818 64.3684 265.795 64.3429 265.795C64.267 265.748 64.1911 265.701 64.1406 265.653C64.0903 265.581 64.0146 265.51 63.9897 265.437C63.9148 265.267 63.8658 265.047 63.8677 264.827L64.3021 213.817L65.7965 214.637L65.3623 265.623C65.3604 265.843 65.4097 266.038 65.4845 266.208C65.5344 266.329 65.6099 266.426 65.7111 266.497C65.7364 266.52 65.7616 266.544 65.7871 266.544C65.762 266.495 65.7618 266.52 65.7873 266.519Z" fill="#37474F"/>
<path d="M68.6723 217.605C68.6729 217.531 68.699 217.457 68.725 217.383L69.5794 215.669C69.605 215.644 69.6053 215.62 69.6307 215.619L69.6564 215.594C69.682 215.569 69.7075 215.568 69.7327 215.592C69.758 215.616 69.7578 215.64 69.7576 215.665L69.7527 216.229C69.7521 216.303 69.7517 216.352 69.7258 216.401C69.7254 216.45 69.6995 216.5 69.6737 216.55L69.2078 217.469L69.6626 217.85C69.6878 217.873 69.7131 217.897 69.7127 217.946C69.7125 217.971 69.7375 218.019 69.7369 218.093L69.7321 218.657C69.7317 218.706 69.7314 218.73 69.7056 218.78C69.6797 218.83 69.654 218.855 69.6286 218.856C69.6286 218.856 69.6286 218.856 69.6031 218.856C69.6031 218.856 69.5777 218.857 69.5522 218.858L68.7188 218.119C68.6681 218.095 68.6685 218.046 68.6691 217.973L68.6723 217.605Z" fill="#0474C0"/>
<path d="M71.8394 213.259C71.8652 213.209 71.8659 213.135 71.9172 213.085C71.9431 213.035 71.9944 212.985 72.0455 212.959L72.3778 212.779C72.4035 212.754 72.429 212.753 72.4542 212.777C72.4794 212.801 72.4792 212.826 72.479 212.85C72.4788 212.875 72.4786 212.899 72.4784 212.924L70.9764 218.969C70.976 219.018 70.9501 219.068 70.9241 219.142C70.8982 219.191 70.8469 219.242 70.7955 219.292L70.4887 219.471C70.463 219.497 70.4375 219.497 70.4123 219.473C70.3871 219.45 70.3873 219.425 70.3875 219.4C70.3877 219.376 70.3879 219.351 70.3881 219.327L71.8394 213.259Z" fill="#0474C0"/>
<path d="M74.0646 214.894C74.064 214.968 74.0379 215.042 74.0118 215.116L73.1575 216.83C73.1318 216.855 73.1316 216.879 73.1062 216.88L73.0805 216.905C73.0548 216.93 73.0294 216.931 73.0041 216.907C72.9789 216.883 72.9791 216.859 72.9793 216.834L72.9841 216.27C72.9847 216.197 72.9852 216.148 73.011 216.098C73.0115 216.049 73.0373 215.999 73.0632 215.949L73.5291 215.03L73.0743 214.65C73.049 214.626 73.0238 214.602 73.0242 214.553C73.0244 214.528 72.9994 214.48 73 214.406L73.0048 213.842C73.0052 213.793 73.0054 213.769 73.0313 213.719C73.0572 213.669 73.0828 213.644 73.1083 213.643C73.1083 213.643 73.1083 213.643 73.1337 213.643C73.1337 213.643 73.1592 213.642 73.1846 213.642L74.0181 214.381C74.0688 214.404 74.0684 214.453 74.0677 214.526L74.0646 214.894Z" fill="#0474C0"/>
<path d="M76.435 214.442C76.4607 214.417 76.4862 214.416 76.5114 214.44C76.5366 214.464 76.5364 214.489 76.536 214.538L76.5306 215.175C76.5302 215.224 76.5298 215.274 76.5039 215.323C76.478 215.373 76.4523 215.398 76.4267 215.423L76.0176 215.654C75.9919 215.679 75.9665 215.68 75.9412 215.656C75.916 215.632 75.9162 215.608 75.9166 215.559L75.922 214.921C75.9224 214.872 75.9229 214.823 75.9487 214.773C75.9746 214.724 76.0003 214.698 76.0259 214.673L76.435 214.442Z" fill="#0474C0"/>
<path d="M77.7904 213.672C77.816 213.647 77.8415 213.647 77.8667 213.671C77.892 213.694 77.8918 213.719 77.8914 213.768L77.8859 214.406C77.8855 214.455 77.8851 214.504 77.8592 214.553C77.8334 214.603 77.8077 214.628 77.782 214.653L77.3729 214.884C77.3473 214.91 77.3218 214.91 77.2966 214.886C77.2713 214.862 77.2715 214.838 77.2719 214.789L77.2774 214.151C77.2778 214.102 77.2782 214.053 77.3041 214.003C77.3299 213.954 77.3556 213.929 77.3813 213.903L77.7904 213.672Z" fill="#0474C0"/>
<path d="M79.1457 212.878C79.1714 212.853 79.1969 212.852 79.2221 212.876C79.2473 212.9 79.2471 212.925 79.2467 212.974L79.2413 213.611C79.2409 213.66 79.2404 213.709 79.2146 213.759C79.1887 213.809 79.163 213.834 79.1374 213.859L78.7283 214.09C78.7026 214.115 78.6771 214.116 78.6519 214.092C78.6267 214.068 78.6269 214.044 78.6273 213.995L78.6327 213.357C78.6331 213.308 78.6336 213.259 78.6594 213.209C78.6853 213.16 78.711 213.134 78.7366 213.109L79.1457 212.878Z" fill="#0474C0"/>
<path d="M68.9896 222.182L88.7832 210.723C89.0133 210.594 89.2163 210.663 89.2142 210.908C89.2121 211.153 89.0315 211.452 88.7759 211.581L68.9823 223.04C68.7522 223.169 68.5492 223.1 68.5513 222.855C68.5786 222.634 68.7595 222.31 68.9896 222.182Z" fill="#0474C0"/>
<path d="M75.2672 229.06L95.0608 217.601C95.2909 217.473 95.4939 217.541 95.4918 217.787C95.4897 218.032 95.3091 218.331 95.0535 218.46L75.2599 229.919C75.0298 230.047 74.8268 229.979 74.8289 229.734C74.8309 229.488 75.0116 229.189 75.2672 229.06Z" fill="white"/>
<path d="M75.2075 236.099L84.695 230.613C84.9251 230.484 85.1281 230.553 85.126 230.798C85.124 231.043 84.9433 231.342 84.6877 231.471L75.2001 236.957C74.97 237.086 74.767 237.017 74.7691 236.772C74.7712 236.527 74.9519 236.228 75.2075 236.099Z" fill="#E0E0E0"/>
<path d="M90.4198 209.774L98.2966 205.187C98.5267 205.058 98.7297 205.127 98.7276 205.372C98.7255 205.617 98.5449 205.916 98.2893 206.045L90.4125 210.633C90.1824 210.761 89.9794 210.693 89.9815 210.447C90.0088 210.226 90.1897 209.903 90.4198 209.774Z" fill="#0474C0"/>
<path d="M68.6602 260.857L88.4539 249.397C88.684 249.269 88.887 249.337 88.8849 249.583C88.8828 249.828 88.7021 250.127 88.4465 250.256L68.6529 261.715C68.4228 261.843 68.2198 261.775 68.2219 261.53C68.2492 261.308 68.4299 261.01 68.6602 260.857Z" fill="#0474C0"/>
<path d="M90.0904 248.449L97.9671 243.861C98.1972 243.733 98.4002 243.801 98.3982 244.046C98.3961 244.292 98.2154 244.59 97.9598 244.719L90.0831 249.307C89.8529 249.435 89.6499 249.367 89.652 249.122C89.6794 248.9 89.86 248.602 90.0904 248.449Z" fill="#0474C0"/>
<path d="M90.1801 237.928L98.0569 233.34C98.287 233.212 98.49 233.28 98.4879 233.526C98.4858 233.771 98.3051 234.07 98.0495 234.199L90.1728 238.786C89.9427 238.915 89.7397 238.846 89.7418 238.601C89.7691 238.38 89.95 238.056 90.1801 237.928Z" fill="#0474C0"/>
<path d="M90.1502 241.435L98.0269 236.847C98.2571 236.719 98.4601 236.787 98.458 237.033C98.4559 237.278 98.2752 237.577 98.0196 237.706L90.1429 242.293C89.9128 242.422 89.7098 242.353 89.7119 242.108C89.7392 241.887 89.9199 241.588 90.1502 241.435Z" fill="#0474C0"/>
<path d="M83.4546 241.8L87.8788 239.236C88.1089 239.108 88.3119 239.176 88.3098 239.422C88.3078 239.667 88.1271 239.966 87.8715 240.095L83.4473 242.658C83.2172 242.787 83.0142 242.718 83.0163 242.473C83.0436 242.252 83.2243 241.953 83.4546 241.8Z" fill="#0474C0"/>
<path d="M68.9595 225.713L80.5185 219.022C80.7486 218.894 80.9516 218.962 80.9495 219.208C80.9475 219.453 80.7668 219.752 80.5112 219.881L68.9522 226.572C68.722 226.7 68.5191 226.632 68.5211 226.386C68.5487 226.141 68.7294 225.842 68.9595 225.713Z" fill="#0474C0"/>
<path opacity="0.6" d="M68.9595 225.713L80.5185 219.022C80.7486 218.894 80.9516 218.962 80.9495 219.208C80.9475 219.453 80.7668 219.752 80.5112 219.881L68.9522 226.572C68.722 226.7 68.5191 226.632 68.5211 226.386C68.5487 226.141 68.7294 225.842 68.9595 225.713Z" fill="white"/>
<path d="M68.9296 229.22L72.8424 226.94C73.0725 226.811 73.2755 226.88 73.2734 227.125C73.2714 227.37 73.0907 227.669 72.8351 227.798L68.9223 230.079C68.6922 230.207 68.4892 230.139 68.4913 229.893C68.5186 229.672 68.6995 229.349 68.9296 229.22Z" fill="#0474C0"/>
<path opacity="0.6" d="M68.9296 229.22L72.8424 226.94C73.0725 226.811 73.2755 226.88 73.2734 227.125C73.2714 227.37 73.0907 227.669 72.8351 227.798L68.9223 230.079C68.6922 230.207 68.4892 230.139 68.4913 229.893C68.5186 229.672 68.6995 229.349 68.9296 229.22Z" fill="white"/>
<path d="M68.8997 232.727L72.8125 230.446C73.0426 230.318 73.2456 230.386 73.2435 230.632C73.2414 230.877 73.0608 231.176 72.8052 231.305L68.8924 233.586C68.6623 233.714 68.4593 233.646 68.4614 233.4C68.4887 233.179 68.6694 232.88 68.8997 232.727Z" fill="#0474C0"/>
<path opacity="0.6" d="M68.8997 232.727L72.8125 230.446C73.0426 230.318 73.2456 230.386 73.2435 230.632C73.2414 230.877 73.0608 231.176 72.8052 231.305L68.8924 233.586C68.6623 233.714 68.4593 233.646 68.4614 233.4C68.4887 233.179 68.6694 232.88 68.8997 232.727Z" fill="white"/>
<path d="M68.8697 236.259L72.7825 233.978C73.0126 233.85 73.2156 233.918 73.2135 234.163C73.2114 234.409 73.0307 234.707 72.7752 234.836L68.8624 237.117C68.6322 237.246 68.4292 237.177 68.4313 236.932C68.4589 236.686 68.6395 236.387 68.8697 236.259Z" fill="#0474C0"/>
<path opacity="0.6" d="M68.8697 236.259L72.7825 233.978C73.0126 233.85 73.2156 233.918 73.2135 234.163C73.2114 234.409 73.0307 234.707 72.7752 234.836L68.8624 237.117C68.6322 237.246 68.4292 237.177 68.4313 236.932C68.4589 236.686 68.6395 236.387 68.8697 236.259Z" fill="white"/>
<path d="M75.2374 232.567L86.7965 225.876C87.0266 225.748 87.2296 225.817 87.2275 226.062C87.2254 226.307 87.0447 226.606 86.7892 226.735L75.2301 233.426C75 233.554 74.797 233.486 74.7991 233.241C74.801 233.02 74.9817 232.721 75.2374 232.567Z" fill="#0474C0"/>
<path d="M88.4077 224.929L93.42 222.032C93.6502 221.903 93.8531 221.972 93.8511 222.217C93.849 222.462 93.6683 222.761 93.4127 222.89L88.4004 225.787C88.1703 225.915 87.9673 225.847 87.9694 225.602C87.9967 225.38 88.1774 225.082 88.4077 224.929Z" fill="#0474C0"/>
<path d="M68.8398 239.766L72.7526 237.485C72.9827 237.357 73.1857 237.425 73.1836 237.67C73.1815 237.915 73.0008 238.214 72.7453 238.343L68.8324 240.624C68.6023 240.753 68.3993 240.684 68.4014 240.439C68.4288 240.218 68.6096 239.894 68.8398 239.766Z" fill="#0474C0"/>
<path opacity="0.6" d="M68.8398 239.766L72.7526 237.485C72.9827 237.357 73.1857 237.425 73.1836 237.67C73.1815 237.915 73.0008 238.214 72.7453 238.343L68.8324 240.624C68.6023 240.753 68.3993 240.684 68.4014 240.439C68.4288 240.218 68.6096 239.894 68.8398 239.766Z" fill="white"/>
<path d="M82.1552 218.074L87.1675 215.177C87.3976 215.049 87.6006 215.117 87.5985 215.362C87.5964 215.607 87.4157 215.906 87.1602 216.035L82.1479 218.932C81.9177 219.061 81.7148 218.992 81.7168 218.747C81.7189 218.502 81.9251 218.202 82.1552 218.074Z" fill="#0474C0"/>
<path opacity="0.6" d="M82.1552 218.074L87.1675 215.177C87.3976 215.049 87.6006 215.117 87.5985 215.362C87.5964 215.607 87.4157 215.906 87.1602 216.035L82.1479 218.932C81.9177 219.061 81.7148 218.992 81.7168 218.747C81.7189 218.502 81.9251 218.202 82.1552 218.074Z" fill="white"/>
<path d="M79.9342 236.838L91.4933 230.147C91.7234 230.018 91.9264 230.087 91.9243 230.332C91.9222 230.577 91.7415 230.876 91.4859 231.005L79.9269 237.696C79.6968 237.825 79.4938 237.756 79.4959 237.511C79.4978 237.29 79.7039 236.991 79.9342 236.838Z" fill="#E0E0E0"/>
<path d="M86.5531 236.524L98.1121 229.833C98.3423 229.704 98.5453 229.773 98.5432 230.018C98.5411 230.263 98.3604 230.562 98.1048 230.691L86.5458 237.382C86.3157 237.51 86.1127 237.442 86.1148 237.197C86.1423 236.951 86.323 236.652 86.5531 236.524Z" fill="white"/>
<path d="M93.1299 229.198L98.1422 226.301C98.3723 226.173 98.5753 226.241 98.5732 226.487C98.5711 226.732 98.3905 227.031 98.1349 227.16L93.1226 230.057C92.8925 230.185 92.6895 230.117 92.6916 229.871C92.6935 229.651 92.8741 229.352 93.1299 229.198Z" fill="#E0E0E0"/>
<path d="M93.0113 243.128L98.0235 240.231C98.2537 240.103 98.4567 240.171 98.4546 240.416C98.4525 240.662 98.2718 240.96 98.0162 241.089L93.0039 243.986C92.7738 244.115 92.5708 244.046 92.5729 243.801C92.5748 243.58 92.7555 243.282 93.0113 243.128Z" fill="#E0E0E0"/>
<path d="M75.2971 225.554L86.8562 218.863C87.0863 218.734 87.2893 218.803 87.2872 219.048C87.2851 219.293 87.1044 219.592 86.8489 219.721L75.2898 226.412C75.0597 226.54 74.8567 226.472 74.8588 226.227C74.8609 225.981 75.0416 225.683 75.2971 225.554Z" fill="#0474C0"/>
<path opacity="0.6" d="M75.2971 225.554L86.8562 218.863C87.0863 218.734 87.2893 218.803 87.2872 219.048C87.2851 219.293 87.1044 219.592 86.8489 219.721L75.2898 226.412C75.0597 226.54 74.8567 226.472 74.8588 226.227C74.8609 225.981 75.0416 225.683 75.2971 225.554Z" fill="white"/>
<path d="M88.4674 217.915L93.4797 215.018C93.7098 214.889 93.9128 214.958 93.9107 215.203C93.9087 215.448 93.728 215.747 93.4724 215.876L88.4601 218.773C88.23 218.901 88.027 218.833 88.0291 218.588C88.0566 218.342 88.2373 218.043 88.4674 217.915Z" fill="#0474C0"/>
<path opacity="0.6" d="M88.4674 217.915L93.4797 215.018C93.7098 214.889 93.9128 214.958 93.9107 215.203C93.9087 215.448 93.728 215.747 93.4724 215.876L88.4601 218.773C88.23 218.901 88.027 218.833 88.0291 218.588C88.0566 218.342 88.2373 218.043 88.4674 217.915Z" fill="white"/>
<path opacity="0.6" d="M75.2374 232.567L86.7965 225.876C87.0266 225.748 87.2296 225.817 87.2275 226.062C87.2254 226.307 87.0447 226.606 86.7892 226.735L75.2301 233.426C75 233.554 74.797 233.486 74.7991 233.241C74.801 233.02 74.9817 232.721 75.2374 232.567Z" fill="white"/>
<path opacity="0.6" d="M88.4077 224.929L93.42 222.032C93.6502 221.903 93.8531 221.972 93.8511 222.217C93.849 222.462 93.6683 222.761 93.4127 222.89L88.4004 225.787C88.1703 225.915 87.9673 225.847 87.9694 225.602C87.9967 225.38 88.1774 225.082 88.4077 224.929Z" fill="white"/>
<path d="M84.2784 47.8558L101.351 40.6339C101.351 40.6339 102.201 38.0891 102.332 37.2637C102.463 36.3696 101.678 35.2691 101.416 34.8564C101.154 34.4437 91.7352 20 91.7352 20L71.9812 30.4545" stroke="#0474C0" stroke-miterlimit="10" stroke-linecap="round" stroke-linejoin="round"/>
<path d="M79.438 46.8242L80.2229 48.0622" stroke="#0474C0" stroke-miterlimit="10" stroke-linecap="round" stroke-linejoin="round"/>
<path d="M101.089 39.6711L90.5578 24.2644L71 33.8936L78.5222 45.3798" stroke="#0474C0" stroke-miterlimit="10" stroke-linecap="round" stroke-linejoin="round"/>
<path d="M100.631 38.7082L101.089 36.4384L91.4081 21.3757L74.1397 30.2483L73.3547 32.518" stroke="#0474C0" stroke-miterlimit="10" stroke-linecap="round" stroke-linejoin="round"/>
<path d="M99.5844 35.5442L98.1454 33.4121C98.1454 33.4121 99.9769 32.5867 101.678 31.6238C103.313 30.6609 105.341 29.2853 105.341 29.2853L103.967 32.174L106.845 32.3116L99.5844 35.5442Z" fill="#263238"/>
<path d="M207.97 44.1802L207.316 43.3549L194.168 55.8728L211.829 65.9834L221.052 81.734L231.91 69.6287L231.714 68.8722" stroke="#0474C0" stroke-miterlimit="10" stroke-linecap="round" stroke-linejoin="round"/>
<path d="M223.995 53.1216L213.006 64.0576C213.006 64.0576 212.876 60.6186 209.736 60.6874C206.596 60.7561 202.017 58.5552 199.924 57.5235C197.831 56.5606 196.261 55.3913 196.261 55.3913L208.82 43.4236C208.82 43.4236 212.679 46.45 217.323 47.1378C221.902 47.8943 223.865 50.4392 223.995 53.1216Z" stroke="#0474C0" stroke-miterlimit="10" stroke-linecap="round" stroke-linejoin="round"/>
<path d="M213.006 64.1263C213.006 64.1263 215.819 64.3327 216.539 66.4649C217.258 68.597 217.52 72.7926 219.417 75.9565C221.314 79.1203 221.772 79.6018 221.772 79.6018L232.761 67.6341C232.761 67.6341 230.733 66.0522 229.425 60.9625C228.182 55.8728 226.546 52.984 223.995 53.1216L213.006 64.1263Z" stroke="#0474C0" stroke-miterlimit="10" stroke-linecap="round" stroke-linejoin="round"/>
<path d="M211.764 65.0205C211.764 65.0205 210.913 63.92 209.605 62.8883C208.232 61.9254 206.073 61.3064 202.933 59.862" stroke="#0474C0" stroke-miterlimit="10" stroke-linecap="round" stroke-linejoin="round"/>
<path d="M213.137 66.1898C213.137 66.1898 215.034 67.0151 215.688 69.0097C216.342 70.9356 217.193 74.4433 220.66 79.4643" stroke="#0474C0" stroke-miterlimit="10" stroke-linecap="round" stroke-linejoin="round"/>
<path d="M207.577 46.725C207.577 46.725 209.932 48.0319 214.053 49.6138C218.174 51.1957 220.005 52.6401 220.463 54.6347" stroke="#0474C0" stroke-miterlimit="10" stroke-linecap="round" stroke-linejoin="round"/>
<path d="M205.746 48.7884C205.746 48.7884 208.101 50.0952 212.222 51.6771C216.342 53.2591 218.174 54.7035 218.632 56.6981" stroke="#0474C0" stroke-miterlimit="10" stroke-linecap="round" stroke-linejoin="round"/>
<path d="M203.849 50.9206C203.849 50.9206 206.204 52.2274 210.325 53.8093C214.445 55.3913 216.277 56.8357 216.735 58.8303" stroke="#0474C0" stroke-miterlimit="10" stroke-linecap="round" stroke-linejoin="round"/>
<path d="M201.952 52.984C201.952 52.984 204.307 54.2908 208.428 55.8728C212.549 57.4547 214.38 58.8991 214.838 60.8937" stroke="#0474C0" stroke-miterlimit="10" stroke-linecap="round" stroke-linejoin="round"/>
<path d="M222.164 56.9733C222.164 56.9733 224.257 57.1796 224.911 59.9308C225.565 62.682 227.331 68.597 229.49 68.8034" stroke="#0474C0" stroke-miterlimit="10" stroke-linecap="round" stroke-linejoin="round"/>
<path d="M219.94 59.3117C219.94 59.3117 221.837 60.1371 222.687 63.6448C223.538 67.0838 224.977 70.0414 227.397 71.4857" stroke="#0474C0" stroke-miterlimit="10" stroke-linecap="round" stroke-linejoin="round"/>
<path d="M217.651 61.1C217.651 61.1 220.202 61.5814 220.921 64.6765C221.706 67.7716 223.145 71.4857 225.238 73.2052" stroke="#0474C0" stroke-miterlimit="10" stroke-linecap="round" stroke-linejoin="round"/>
<path d="M216.015 62.8883C216.015 62.8883 217.912 62.9571 218.828 65.9834C219.744 69.0097 221.379 72.655 223.341 75.2687" stroke="#0474C0" stroke-miterlimit="10" stroke-linecap="round" stroke-linejoin="round"/>
<path d="M143.924 26.8941L133 44.9144L135.355 45.5335L146.278 28.4761L163.678 39.0682L166.032 36.5233L146.867 26" stroke="#0474C0" stroke-miterlimit="10" stroke-linecap="round" stroke-linejoin="round"/>
<path d="M146.278 28.4761L150.988 58.3265L165.444 66.9927L163.416 40.5813" stroke="#0474C0" stroke-miterlimit="10" stroke-linecap="round" stroke-linejoin="round"/>
<path d="M165.444 66.9928L167.799 62.3157L166.032 36.5233" stroke="#0474C0" stroke-miterlimit="10" stroke-linecap="round" stroke-linejoin="round"/>
<path d="M150.988 58.3265L141.242 72.2888L136.205 48.0095" stroke="#0474C0" stroke-miterlimit="10" stroke-linecap="round" stroke-linejoin="round"/>
<path d="M133 44.9144L138.56 71.9449L141.242 72.2888" stroke="#0474C0" stroke-miterlimit="10" stroke-linecap="round" stroke-linejoin="round"/>
<path d="M146.867 38.7242L139.149 49.9353" stroke="#0474C0" stroke-miterlimit="10" stroke-linecap="round" stroke-linejoin="round"/>
<path d="M147.456 44.0203L139.737 55.1626" stroke="#0474C0" stroke-miterlimit="10" stroke-linecap="round" stroke-linejoin="round"/>
<path d="M148.044 49.3163L140.326 60.4587" stroke="#0474C0" stroke-miterlimit="10" stroke-linecap="round" stroke-linejoin="round"/>
<path d="M148.633 54.5436L140.915 65.7547" stroke="#0474C0" stroke-miterlimit="10" stroke-linecap="round" stroke-linejoin="round"/>
<path d="M150.072 39.0681L160.472 45.2583" stroke="#0474C0" stroke-miterlimit="10" stroke-linecap="round" stroke-linejoin="round"/>
<path d="M150.072 44.0203L160.472 50.2104" stroke="#0474C0" stroke-miterlimit="10" stroke-linecap="round" stroke-linejoin="round"/>
<path d="M151.577 49.3163L161.912 55.5065" stroke="#0474C0" stroke-miterlimit="10" stroke-linecap="round" stroke-linejoin="round"/>
<path d="M151.904 54.5436L162.239 60.8025" stroke="#0474C0" stroke-miterlimit="10" stroke-linecap="round" stroke-linejoin="round"/>
<path d="M2.37362 135.477L1 136.234L12.9702 160.307L32.9858 137.816L57.4494 129.906L45.2176 109.41L44.1711 109.478" stroke="#0474C0" stroke-miterlimit="10" stroke-linecap="round" stroke-linejoin="round"/>
<path d="M20.2307 115.118L30.8927 135.34C30.8927 135.34 26.1831 134.239 25.1365 138.916C24.09 143.593 19.3804 149.577 17.3526 152.328C15.2595 155.079 13.1664 157.005 13.1664 157.005L1.71948 134.033C1.71948 134.033 7.21398 129.356 9.765 122.822C12.4468 116.219 16.6331 114.293 20.2307 115.118Z" stroke="#0474C0" stroke-miterlimit="10" stroke-linecap="round" stroke-linejoin="round"/>
<path d="M30.8927 135.408C30.8927 135.408 32.2009 131.282 35.3406 131.007C38.4803 130.731 44.1711 131.832 49.1423 130.181C54.1135 128.53 54.8984 127.98 54.8984 127.98L42.9283 107.484C42.9283 107.484 40.0502 109.96 32.7896 109.96C25.529 109.96 21.0811 111.336 20.2961 115.187L30.8927 135.408Z" stroke="#0474C0" stroke-miterlimit="10" stroke-linecap="round" stroke-linejoin="round"/>
<path d="M31.6776 137.541C31.6776 137.541 29.8461 138.366 28.0146 140.017C26.1831 141.667 24.6132 144.694 21.5389 148.752" stroke="#0474C0" stroke-miterlimit="10" stroke-linecap="round" stroke-linejoin="round"/>
<path d="M33.7708 135.959C33.7708 135.959 35.6023 133.483 38.4803 133.208C41.3584 132.932 46.2642 132.932 54.3751 129.631" stroke="#0474C0" stroke-miterlimit="10" stroke-linecap="round" stroke-linejoin="round"/>
<path d="M5.70959 136.99C5.70959 136.99 8.32602 133.964 11.9236 128.53C15.5866 123.028 18.1376 120.896 21.0157 120.896" stroke="#0474C0" stroke-miterlimit="10" stroke-linecap="round" stroke-linejoin="round"/>
<path d="M7.7373 140.567C7.7373 140.567 10.3537 137.541 13.9513 132.107C17.6143 126.605 20.1653 124.472 23.0434 124.472" stroke="#0474C0" stroke-miterlimit="10" stroke-linecap="round" stroke-linejoin="round"/>
<path d="M9.83044 144.143C9.83044 144.143 12.4469 141.117 16.0445 135.684C19.7075 130.181 22.2585 128.049 25.1366 128.049" stroke="#0474C0" stroke-miterlimit="10" stroke-linecap="round" stroke-linejoin="round"/>
<path d="M11.9236 147.72C11.9236 147.72 14.54 144.694 18.1376 139.26C21.8006 133.758 24.3516 131.626 27.2297 131.626" stroke="#0474C0" stroke-miterlimit="10" stroke-linecap="round" stroke-linejoin="round"/>
<path d="M24.6787 119.245C24.6787 119.245 25.7253 116.219 29.6499 116.219C33.5746 116.219 42.1434 115.875 43.1899 112.642" stroke="#0474C0" stroke-miterlimit="10" stroke-linecap="round" stroke-linejoin="round"/>
<path d="M27.0334 123.372C27.0334 123.372 28.8649 120.896 33.7707 120.896C38.742 120.896 43.1245 119.795 46.0026 116.769" stroke="#0474C0" stroke-miterlimit="10" stroke-linecap="round" stroke-linejoin="round"/>
<path d="M28.6034 127.43C28.6034 127.43 30.1733 123.853 34.5558 123.853C39.0037 123.853 44.4328 123.028 47.5725 120.552" stroke="#0474C0" stroke-miterlimit="10" stroke-linecap="round" stroke-linejoin="round"/>
<path d="M30.3695 130.456C30.3695 130.456 31.1544 127.705 35.6024 127.43C40.0503 127.155 45.4794 126.054 49.6657 124.129" stroke="#0474C0" stroke-miterlimit="10" stroke-linecap="round" stroke-linejoin="round"/>
</svg>
