<svg width="280" height="280" viewBox="0 0 280 280" fill="none" xmlns="http://www.w3.org/2000/svg">
<g clip-path="url(#clip0_7_144)">
<path d="M249.098 42.2629C249.098 42.2629 232.078 6.09215 194.41 0.761715C156.741 -4.56872 130.443 21.5504 102.75 34.9526C88.2412 41.9583 71.6393 39.217 56.293 42.6437C7.04539 53.4568 -11.5097 121.458 8.99855 160.142C26.7863 193.647 58.0369 211.085 105.61 215.045C153.184 219.005 186.597 223.726 229.218 190.906C271.839 158.162 269.048 89.7799 249.098 42.2629Z" fill="#0474C0"/>
<path opacity="0.8" d="M249.098 42.2629C249.098 42.2629 232.078 6.09215 194.41 0.761715C156.741 -4.56872 130.443 21.5504 102.75 34.9526C88.2412 41.9583 71.6393 39.217 56.293 42.6437C7.04539 53.4568 -11.5097 121.458 8.99855 160.142C26.7863 193.647 58.0369 211.085 105.61 215.045C153.184 219.005 186.597 223.726 229.218 190.906C271.839 158.162 269.048 89.7799 249.098 42.2629Z" fill="#F2F2F2"/>
<path d="M209.198 72.7223L201.874 106.076C201.874 106.076 204.385 109.959 205.431 111.025C206.408 112.091 208.71 112.091 209.477 112.091C210.244 112.091 238.774 112.624 238.774 112.624L244.355 71.8085" stroke="#263238" stroke-miterlimit="10" stroke-linecap="round" stroke-linejoin="round"/>
<path d="M215.336 66.4784L213.034 66.402" stroke="#263238" stroke-miterlimit="10" stroke-linecap="round" stroke-linejoin="round"/>
<path d="M203.408 106.685L234.24 106.533L240.797 66.935L218.196 66.4781" stroke="#263238" stroke-miterlimit="10" stroke-linecap="round" stroke-linejoin="round"/>
<path d="M205.152 106.913L207.733 109.959L237.24 110.797L242.611 75.3876L240.309 71.8847" stroke="#263238" stroke-miterlimit="10" stroke-linecap="round" stroke-linejoin="round"/>
<path d="M210.314 108.665H214.569C214.569 108.665 213.872 112.396 213.523 115.899C213.174 119.402 212.965 123.894 212.965 123.894L210.453 118.869L207.454 123.133L210.314 108.665Z" fill="#263238"/>
<path d="M30.1346 115.975L48.3409 107.979C48.3409 107.979 49.2477 105.162 49.3872 104.248C49.5267 103.258 48.6897 102.04 48.4106 101.583C48.1316 101.126 38.0868 85.1346 38.0868 85.1346L17.0205 96.7093" stroke="#263238" stroke-miterlimit="10" stroke-linecap="round" stroke-linejoin="round"/>
<path d="M24.9727 114.833L25.8097 116.203" stroke="#263238" stroke-miterlimit="10" stroke-linecap="round" stroke-linejoin="round"/>
<path d="M48.0618 106.913L36.8311 89.8559L15.9741 100.517L23.996 113.234" stroke="#263238" stroke-miterlimit="10" stroke-linecap="round" stroke-linejoin="round"/>
<path d="M47.5735 105.847L48.0618 103.334L37.738 86.6577L19.3224 96.4809L18.4854 98.9938" stroke="#263238" stroke-miterlimit="10" stroke-linecap="round" stroke-linejoin="round"/>
<path d="M46.4575 102.344L44.9229 99.9837C44.9229 99.9837 46.876 99.0699 48.6897 98.0038C50.4336 96.9377 52.596 95.4147 52.596 95.4147L51.1311 98.613L54.2004 98.7653L46.4575 102.344Z" fill="#263238"/>
<path d="M29.716 147.196L28.2511 148.034L41.0164 174.686L62.3617 149.785L88.4504 141.028L75.4061 118.336L74.29 118.412" stroke="#263238" stroke-miterlimit="10" stroke-linecap="round" stroke-linejoin="round"/>
<path d="M48.7593 124.656L60.1295 147.044C60.1295 147.044 55.1071 145.825 53.991 151.004C52.8749 156.182 47.8525 162.807 45.6901 165.853C43.4579 168.899 41.2257 171.031 41.2257 171.031L29.0184 145.597C29.0184 145.597 34.8779 140.419 37.5984 133.185C40.4584 125.874 44.9228 123.742 48.7593 124.656Z" stroke="#263238" stroke-miterlimit="10" stroke-linecap="round" stroke-linejoin="round"/>
<path d="M60.1295 147.12C60.1295 147.12 61.5247 142.551 64.8729 142.246C68.2212 141.942 74.29 143.16 79.5914 141.333C84.8929 139.505 85.7299 138.896 85.7299 138.896L72.9646 116.203C72.9646 116.203 69.8954 118.945 62.1525 118.945C54.4096 118.945 49.6662 120.468 48.8291 124.732L60.1295 147.12Z" stroke="#263238" stroke-miterlimit="10" stroke-linecap="round" stroke-linejoin="round"/>
<path d="M60.9666 149.481C60.9666 149.481 59.0134 150.394 57.0602 152.222C55.1071 154.05 53.4329 157.4 50.1544 161.893" stroke="#263238" stroke-miterlimit="10" stroke-linecap="round" stroke-linejoin="round"/>
<path d="M63.1987 147.729C63.1987 147.729 65.1519 144.988 68.2212 144.683C71.2904 144.379 76.5221 144.379 85.1718 140.723" stroke="#263238" stroke-miterlimit="10" stroke-linecap="round" stroke-linejoin="round"/>
<path d="M33.2736 148.871C33.2736 148.871 36.0638 145.521 39.9004 139.505C43.8067 133.413 46.5272 131.052 49.5964 131.052" stroke="#263238" stroke-miterlimit="10" stroke-linecap="round" stroke-linejoin="round"/>
<path d="M35.4359 152.831C35.4359 152.831 38.2261 149.481 42.0627 143.465C45.969 137.373 48.6895 135.012 51.7588 135.012" stroke="#263238" stroke-miterlimit="10" stroke-linecap="round" stroke-linejoin="round"/>
<path d="M37.6681 156.791C37.6681 156.791 40.4583 153.44 44.2949 147.425C48.2012 141.333 50.9217 138.972 53.991 138.972" stroke="#263238" stroke-miterlimit="10" stroke-linecap="round" stroke-linejoin="round"/>
<path d="M39.9003 160.751C39.9003 160.751 42.6905 157.4 46.5271 151.384C50.4334 145.292 53.1539 142.932 56.2231 142.932" stroke="#263238" stroke-miterlimit="10" stroke-linecap="round" stroke-linejoin="round"/>
<path d="M53.5027 129.225C53.5027 129.225 54.6188 125.874 58.8041 125.874C62.9895 125.874 72.1275 125.494 73.2436 121.915" stroke="#263238" stroke-miterlimit="10" stroke-linecap="round" stroke-linejoin="round"/>
<path d="M56.0139 133.794C56.0139 133.794 57.9671 131.053 63.1988 131.053C68.5002 131.053 73.1739 129.834 76.2431 126.484" stroke="#263238" stroke-miterlimit="10" stroke-linecap="round" stroke-linejoin="round"/>
<path d="M57.6881 138.287C57.6881 138.287 59.3623 134.327 64.0359 134.327C68.7793 134.327 74.569 133.413 77.9173 130.672" stroke="#263238" stroke-miterlimit="10" stroke-linecap="round" stroke-linejoin="round"/>
<path d="M59.5715 141.637C59.5715 141.637 60.4086 138.591 65.152 138.287C69.8954 137.982 75.6851 136.764 80.1495 134.631" stroke="#263238" stroke-miterlimit="10" stroke-linecap="round" stroke-linejoin="round"/>
<path d="M180.737 11.1178L180.04 10.204L166.019 24.0631L184.853 35.257L194.689 52.6951L206.268 39.2929L206.059 38.4553" stroke="#263238" stroke-miterlimit="10" stroke-linecap="round" stroke-linejoin="round"/>
<path d="M197.828 21.0172L186.109 33.1249C186.109 33.1249 185.969 29.3174 182.621 29.3936C179.273 29.4697 174.39 27.0329 172.157 25.8907C169.925 24.8246 168.251 23.5301 168.251 23.5301L181.644 10.2802C181.644 10.2802 185.76 13.6307 190.712 14.3922C195.595 15.2298 197.688 18.0474 197.828 21.0172Z" stroke="#263238" stroke-miterlimit="10" stroke-linecap="round" stroke-linejoin="round"/>
<path d="M186.109 33.201C186.109 33.201 189.108 33.4295 189.875 35.7901C190.643 38.1507 190.922 42.7958 192.945 46.2986C194.968 49.8015 195.456 50.3345 195.456 50.3345L207.175 37.0846C207.175 37.0846 205.012 35.3332 203.617 29.6982C202.292 24.0631 200.548 20.8649 197.828 21.0172L186.109 33.201Z" stroke="#263238" stroke-miterlimit="10" stroke-linecap="round" stroke-linejoin="round"/>
<path d="M184.783 34.1909C184.783 34.1909 183.876 32.9725 182.481 31.8303C181.016 30.7642 178.714 30.0789 175.366 28.4797" stroke="#263238" stroke-miterlimit="10" stroke-linecap="round" stroke-linejoin="round"/>
<path d="M186.248 35.4855C186.248 35.4855 188.271 36.3993 188.969 38.6076C189.666 40.7398 190.573 44.6234 194.27 50.1822" stroke="#263238" stroke-miterlimit="10" stroke-linecap="round" stroke-linejoin="round"/>
<path d="M180.319 13.9353C180.319 13.9353 182.83 15.3821 187.225 17.1336C191.619 18.885 193.572 20.4841 194.061 22.6924" stroke="#263238" stroke-miterlimit="10" stroke-linecap="round" stroke-linejoin="round"/>
<path d="M178.366 16.2197C178.366 16.2197 180.877 17.6666 185.272 19.418C189.666 21.1694 191.619 22.7685 192.108 24.9769" stroke="#263238" stroke-miterlimit="10" stroke-linecap="round" stroke-linejoin="round"/>
<path d="M176.343 18.5804C176.343 18.5804 178.854 20.0272 183.249 21.7786C187.643 23.5301 189.596 25.1292 190.085 27.3375" stroke="#263238" stroke-miterlimit="10" stroke-linecap="round" stroke-linejoin="round"/>
<path d="M174.32 20.8649C174.32 20.8649 176.831 22.3117 181.226 24.0631C185.62 25.8146 187.573 27.4137 188.062 29.622" stroke="#263238" stroke-miterlimit="10" stroke-linecap="round" stroke-linejoin="round"/>
<path d="M195.874 25.2815C195.874 25.2815 198.107 25.5099 198.804 28.5559C199.502 31.6019 201.385 38.1507 203.687 38.3791" stroke="#263238" stroke-miterlimit="10" stroke-linecap="round" stroke-linejoin="round"/>
<path d="M193.503 27.8705C193.503 27.8705 195.526 28.7843 196.432 32.6679C197.339 36.4754 198.874 39.7498 201.455 41.3489" stroke="#263238" stroke-miterlimit="10" stroke-linecap="round" stroke-linejoin="round"/>
<path d="M191.061 29.8504C191.061 29.8504 193.782 30.3834 194.549 33.8102C195.386 37.2369 196.921 41.3489 199.153 43.2526" stroke="#263238" stroke-miterlimit="10" stroke-linecap="round" stroke-linejoin="round"/>
<path d="M189.317 31.8303C189.317 31.8303 191.34 31.9065 192.317 35.257C193.293 38.6076 195.037 42.6435 197.13 45.5371" stroke="#263238" stroke-miterlimit="10" stroke-linecap="round" stroke-linejoin="round"/>
<path d="M79.3124 41.1967L67.6632 61.1477L70.1744 61.8331L81.8236 42.9481L100.379 54.675L102.89 51.8575L82.4514 40.2067" stroke="#263238" stroke-miterlimit="10" stroke-linecap="round" stroke-linejoin="round"/>
<path d="M81.8236 42.9481L86.846 75.9968L102.262 85.5916L100.1 56.3503" stroke="#263238" stroke-miterlimit="10" stroke-linecap="round" stroke-linejoin="round"/>
<path d="M102.262 85.5916L104.773 80.4134L102.89 51.8575" stroke="#263238" stroke-miterlimit="10" stroke-linecap="round" stroke-linejoin="round"/>
<path d="M86.8461 75.9968L76.4525 91.455L71.0813 64.5744" stroke="#263238" stroke-miterlimit="10" stroke-linecap="round" stroke-linejoin="round"/>
<path d="M67.6632 61.1477L73.5925 91.0743L76.4524 91.455" stroke="#263238" stroke-miterlimit="10" stroke-linecap="round" stroke-linejoin="round"/>
<path d="M82.4514 54.2943L74.2202 66.7066" stroke="#263238" stroke-miterlimit="10" stroke-linecap="round" stroke-linejoin="round"/>
<path d="M83.0792 60.1578L74.848 72.4939" stroke="#263238" stroke-miterlimit="10" stroke-linecap="round" stroke-linejoin="round"/>
<path d="M83.707 66.0212L75.4758 78.3574" stroke="#263238" stroke-miterlimit="10" stroke-linecap="round" stroke-linejoin="round"/>
<path d="M84.3348 71.8086L76.1036 84.2209" stroke="#263238" stroke-miterlimit="10" stroke-linecap="round" stroke-linejoin="round"/>
<path d="M85.8695 54.675L96.9607 61.5285" stroke="#263238" stroke-miterlimit="10" stroke-linecap="round" stroke-linejoin="round"/>
<path d="M85.8695 60.1578L96.9607 67.0112" stroke="#263238" stroke-miterlimit="10" stroke-linecap="round" stroke-linejoin="round"/>
<path d="M87.4739 66.0212L98.4953 72.8747" stroke="#263238" stroke-miterlimit="10" stroke-linecap="round" stroke-linejoin="round"/>
<path d="M87.8226 71.8086L98.8441 78.7382" stroke="#263238" stroke-miterlimit="10" stroke-linecap="round" stroke-linejoin="round"/>
<path d="M238.914 186.032L248.68 164.939L246.099 164.482L236.263 184.585L216.662 174.991L214.43 178.036L235.845 187.403" stroke="#263238" stroke-miterlimit="10" stroke-linecap="round" stroke-linejoin="round"/>
<path d="M236.263 184.585L228.171 152.298L211.918 144.455L216.801 173.239" stroke="#263238" stroke-miterlimit="10" stroke-linecap="round" stroke-linejoin="round"/>
<path d="M211.918 144.455L209.895 149.861L214.43 178.036" stroke="#263238" stroke-miterlimit="10" stroke-linecap="round" stroke-linejoin="round"/>
<path d="M228.171 152.298L237.1 135.774L244.913 161.893" stroke="#263238" stroke-miterlimit="10" stroke-linecap="round" stroke-linejoin="round"/>
<path d="M248.68 164.939L239.96 135.774H237.1" stroke="#263238" stroke-miterlimit="10" stroke-linecap="round" stroke-linejoin="round"/>
<path d="M234.589 173.391L241.565 160.141" stroke="#263238" stroke-miterlimit="10" stroke-linecap="round" stroke-linejoin="round"/>
<path d="M233.403 167.604L240.379 154.43" stroke="#263238" stroke-miterlimit="10" stroke-linecap="round" stroke-linejoin="round"/>
<path d="M232.217 161.893L239.263 148.643" stroke="#263238" stroke-miterlimit="10" stroke-linecap="round" stroke-linejoin="round"/>
<path d="M231.031 156.106L238.077 142.932" stroke="#263238" stroke-miterlimit="10" stroke-linecap="round" stroke-linejoin="round"/>
<path d="M231.101 173.391L219.452 167.756" stroke="#263238" stroke-miterlimit="10" stroke-linecap="round" stroke-linejoin="round"/>
<path d="M230.543 167.909L218.964 162.274" stroke="#263238" stroke-miterlimit="10" stroke-linecap="round" stroke-linejoin="round"/>
<path d="M228.45 162.274L216.871 156.639" stroke="#263238" stroke-miterlimit="10" stroke-linecap="round" stroke-linejoin="round"/>
<path d="M227.613 156.486L216.034 150.851" stroke="#263238" stroke-miterlimit="10" stroke-linecap="round" stroke-linejoin="round"/>
<path d="M196.572 196.998C194.619 202.252 192.596 198.064 192.945 175.904C193.084 165.548 193.782 144.379 204.245 149.024C214.36 153.516 201.036 184.814 201.036 184.814L196.572 196.998ZM211.012 200.12C211.012 200.12 232.915 175.219 224.684 167.452C216.173 159.304 209.198 179.102 205.989 188.85C199.083 209.638 199.781 214.359 203.199 210.095L211.012 200.12ZM215.615 222.507C215.615 222.507 235.635 206.973 230.404 199.663C224.963 192.124 217.011 206.135 213.244 213.065C205.222 227.914 205.082 231.569 208.291 228.828L215.615 222.507ZM221.056 244.743C221.056 244.743 241.076 229.209 235.845 221.898C230.404 214.359 222.451 228.371 218.685 235.3C210.663 250.15 210.523 253.805 213.732 251.063L221.056 244.743ZM186.039 199.967C186.039 199.967 157.997 184.052 153.463 194.865C148.72 206.135 168.042 207.811 177.529 208.42C197.758 209.791 201.734 207.811 196.991 205.374L186.039 199.967ZM190.015 217.482C190.015 217.482 159.671 207.963 157.16 219.538C154.579 231.569 173.832 229.056 183.249 227.609C203.338 224.563 206.826 221.746 201.734 220.451L190.015 217.482ZM196.921 236.671C196.921 236.671 171.041 229.361 169.158 239.26C167.205 249.54 183.458 246.875 191.34 245.428C208.221 242.306 211.151 239.869 206.826 238.879L196.921 236.671ZM201.036 252.434C201.036 252.434 175.994 242.154 173.204 251.749C170.274 261.724 186.667 260.963 194.689 260.43C211.779 259.287 214.918 257.231 210.732 255.708L201.036 252.434ZM184.225 172.478C184.225 172.478 172.785 133.718 159.811 140.723C146.278 148.034 161.903 165.548 169.716 173.924C186.388 191.819 191.55 193.038 189.317 186.794L184.225 172.478Z" fill="#0474C0"/>
<path opacity="0.65" d="M196.572 196.998C194.619 202.252 192.596 198.064 192.945 175.904C193.084 165.548 193.782 144.379 204.245 149.024C214.36 153.516 201.036 184.814 201.036 184.814L196.572 196.998ZM211.012 200.12C211.012 200.12 232.915 175.219 224.684 167.452C216.173 159.304 209.198 179.102 205.989 188.85C199.083 209.638 199.781 214.359 203.199 210.095L211.012 200.12ZM215.615 222.507C215.615 222.507 235.635 206.973 230.404 199.663C224.963 192.124 217.011 206.135 213.244 213.065C205.222 227.914 205.082 231.569 208.291 228.828L215.615 222.507ZM221.056 244.743C221.056 244.743 241.076 229.209 235.845 221.898C230.404 214.359 222.451 228.371 218.685 235.3C210.663 250.15 210.523 253.805 213.732 251.063L221.056 244.743ZM186.039 199.967C186.039 199.967 157.997 184.052 153.463 194.865C148.72 206.135 168.042 207.811 177.529 208.42C197.758 209.791 201.734 207.811 196.991 205.374L186.039 199.967ZM190.015 217.482C190.015 217.482 159.671 207.963 157.16 219.538C154.579 231.569 173.832 229.056 183.249 227.609C203.338 224.563 206.826 221.746 201.734 220.451L190.015 217.482ZM196.921 236.671C196.921 236.671 171.041 229.361 169.158 239.26C167.205 249.54 183.458 246.875 191.34 245.428C208.221 242.306 211.151 239.869 206.826 238.879L196.921 236.671ZM201.036 252.434C201.036 252.434 175.994 242.154 173.204 251.749C170.274 261.724 186.667 260.963 194.689 260.43C211.779 259.287 214.918 257.231 210.732 255.708L201.036 252.434ZM184.225 172.478C184.225 172.478 172.785 133.718 159.811 140.723C146.278 148.034 161.903 165.548 169.716 173.924C186.388 191.819 191.55 193.038 189.317 186.794L184.225 172.478Z" fill="#100B20"/>
<path d="M165.252 154.583C165.252 154.583 193.921 192.809 200.827 211.923C208.71 233.93 214.081 258.678 215.127 279.162" stroke="#CCCCCC" stroke-width="1.252" stroke-miterlimit="10" stroke-linecap="round" stroke-linejoin="round"/>
<path d="M195.107 199.434L199.153 162.959" stroke="#CCCCCC" stroke-width="1.252" stroke-miterlimit="10" stroke-linecap="round" stroke-linejoin="round"/>
<path d="M200.827 211.923L215.267 181.235" stroke="#CCCCCC" stroke-width="1.252" stroke-miterlimit="10" stroke-linecap="round" stroke-linejoin="round"/>
<path d="M198.734 207.354L168.46 200.653" stroke="#CCCCCC" stroke-width="1.252" stroke-miterlimit="10" stroke-linecap="round" stroke-linejoin="round"/>
<path d="M206.547 229.285L224.335 207.201" stroke="#CCCCCC" stroke-width="1.252" stroke-miterlimit="10" stroke-linecap="round" stroke-linejoin="round"/>
<path d="M204.036 222.051L181.226 221.822" stroke="#CCCCCC" stroke-width="1.252" stroke-miterlimit="10" stroke-linecap="round" stroke-linejoin="round"/>
<path d="M208.431 240.098L190.922 240.859" stroke="#CCCCCC" stroke-width="1.252" stroke-miterlimit="10" stroke-linecap="round" stroke-linejoin="round"/>
<path d="M212.058 251.673L221.405 238.042" stroke="#CCCCCC" stroke-width="1.252" stroke-miterlimit="10" stroke-linecap="round" stroke-linejoin="round"/>
<path d="M212.686 256.698L192.247 255.632" stroke="#CCCCCC" stroke-width="1.252" stroke-miterlimit="10" stroke-linecap="round" stroke-linejoin="round"/>
<path d="M251.819 227.229C248.261 228.676 249.377 225.401 260.329 214.74C265.421 209.714 276.094 199.739 278.954 208.115C281.744 216.187 259.91 223.878 259.91 223.878L251.819 227.229ZM257.329 237.128C257.329 237.128 280.209 237.585 280 228.98C279.791 219.995 266.746 225.706 260.399 228.676C246.866 234.92 244.913 237.585 248.68 237.509L257.329 237.128ZM248.749 250.759C248.749 250.759 266.188 254.718 267.165 248.094C268.142 241.24 257.469 243.525 252.237 244.743C241.076 247.332 239.193 249.083 242.123 249.617L248.749 250.759ZM240.518 264.846C240.518 264.846 257.957 268.806 258.934 262.181C259.91 255.328 249.238 257.612 244.006 258.831C232.845 261.42 230.962 263.171 233.891 263.704L240.518 264.846ZM245.192 222.584C245.192 222.584 239.193 198.444 231.659 201.11C223.847 203.851 232.566 215.959 236.891 221.746C246.168 234.158 249.098 235.453 247.912 231.569L245.192 222.584ZM238.565 233.473C238.565 233.473 228.311 211.161 221.405 215.349C214.29 219.766 224.963 229.665 230.264 234.463C241.634 244.591 244.704 245.276 242.89 241.697L238.565 233.473ZM232.636 246.875C232.636 246.875 223.428 228.295 217.778 232.026C211.849 235.91 221.056 244.058 225.66 247.941C235.496 256.241 238.147 256.698 236.472 253.729L232.636 246.875ZM226.986 257.003C226.986 257.003 219.661 237.433 213.592 240.479C207.314 243.677 215.685 252.815 219.94 257.231C228.869 266.598 231.45 267.435 230.125 264.237L226.986 257.003ZM257.678 207.963C257.678 207.963 270.932 182.301 261.166 178.189C250.982 173.924 250.075 191.591 249.866 200.272C249.377 218.7 251.261 222.355 253.214 218.015L257.678 207.963Z" fill="#0474C0"/>
<path opacity="0.65" d="M251.819 227.229C248.261 228.676 249.377 225.401 260.329 214.74C265.421 209.714 276.094 199.739 278.954 208.115C281.744 216.187 259.91 223.878 259.91 223.878L251.819 227.229ZM257.329 237.128C257.329 237.128 280.209 237.585 280 228.98C279.791 219.995 266.746 225.706 260.399 228.676C246.866 234.92 244.913 237.585 248.68 237.509L257.329 237.128ZM248.749 250.759C248.749 250.759 266.188 254.718 267.165 248.094C268.142 241.24 257.469 243.525 252.237 244.743C241.076 247.332 239.193 249.083 242.123 249.617L248.749 250.759ZM240.518 264.846C240.518 264.846 257.957 268.806 258.934 262.181C259.91 255.328 249.238 257.612 244.006 258.831C232.845 261.42 230.962 263.171 233.891 263.704L240.518 264.846ZM245.192 222.584C245.192 222.584 239.193 198.444 231.659 201.11C223.847 203.851 232.566 215.959 236.891 221.746C246.168 234.158 249.098 235.453 247.912 231.569L245.192 222.584ZM238.565 233.473C238.565 233.473 228.311 211.161 221.405 215.349C214.29 219.766 224.963 229.665 230.264 234.463C241.634 244.591 244.704 245.276 242.89 241.697L238.565 233.473ZM232.636 246.875C232.636 246.875 223.428 228.295 217.778 232.026C211.849 235.91 221.056 244.058 225.66 247.941C235.496 256.241 238.147 256.698 236.472 253.729L232.636 246.875ZM226.986 257.003C226.986 257.003 219.661 237.433 213.592 240.479C207.314 243.677 215.685 252.815 219.94 257.231C228.869 266.598 231.45 267.435 230.125 264.237L226.986 257.003ZM257.678 207.963C257.678 207.963 270.932 182.301 261.166 178.189C250.982 173.924 250.075 191.591 249.866 200.272C249.377 218.7 251.261 222.355 253.214 218.015L257.678 207.963Z" fill="#E5E5E5"/>
<path d="M257.12 188.164C257.12 188.164 252.586 223.65 246.657 237.052C239.821 252.434 229.497 268.806 220.01 279.543" stroke="#CCCCCC" stroke-width="1.252" stroke-miterlimit="10" stroke-linecap="round" stroke-linejoin="round"/>
<path d="M249.865 227.533L269.606 211.923" stroke="#CCCCCC" stroke-width="1.252" stroke-miterlimit="10" stroke-linecap="round" stroke-linejoin="round"/>
<path d="M246.657 236.976L268.63 230.351" stroke="#CCCCCC" stroke-width="1.252" stroke-miterlimit="10" stroke-linecap="round" stroke-linejoin="round"/>
<path d="M247.773 233.549L236.193 212.684" stroke="#CCCCCC" stroke-width="1.252" stroke-miterlimit="10" stroke-linecap="round" stroke-linejoin="round"/>
<path d="M240.937 248.855L260.468 248.322" stroke="#CCCCCC" stroke-width="1.252" stroke-miterlimit="10" stroke-linecap="round" stroke-linejoin="round"/>
<path d="M243.239 243.829L232.147 230.427" stroke="#CCCCCC" stroke-width="1.252" stroke-miterlimit="10" stroke-linecap="round" stroke-linejoin="round"/>
<path d="M236.612 255.252L227.613 245.504" stroke="#CCCCCC" stroke-width="1.252" stroke-miterlimit="10" stroke-linecap="round" stroke-linejoin="round"/>
<path d="M232.775 263.019L244.006 261.8" stroke="#CCCCCC" stroke-width="1.252" stroke-miterlimit="10" stroke-linecap="round" stroke-linejoin="round"/>
<path d="M230.613 265.912L221.126 253.5" stroke="#CCCCCC" stroke-width="1.252" stroke-miterlimit="10" stroke-linecap="round" stroke-linejoin="round"/>
<path d="M83.4279 196.998C85.3811 202.252 87.404 198.064 87.0552 175.904C86.9157 165.548 86.2182 144.379 75.7548 149.024C65.6402 153.516 78.9636 184.814 78.9636 184.814L83.4279 196.998ZM68.9885 200.12C68.9885 200.12 47.0851 175.219 55.3163 167.452C63.8265 159.304 70.8021 179.102 74.0109 188.85C80.9167 209.638 80.2192 214.359 76.8011 210.095L68.9885 200.12ZM64.3846 222.507C64.3846 222.507 44.3647 206.973 49.5963 199.663C55.0373 192.124 62.9895 206.135 66.7563 213.065C74.7782 227.914 74.9177 231.569 71.709 228.828L64.3846 222.507ZM58.9436 244.743C58.9436 244.743 38.9237 229.209 44.1554 221.898C49.5963 214.359 57.5485 228.371 61.3153 235.3C69.3373 250.15 69.4768 253.805 66.268 251.063L58.9436 244.743ZM93.9611 199.967C93.9611 199.967 122.003 184.052 126.537 194.865C131.28 206.135 111.958 207.811 102.471 208.42C82.2421 209.791 78.266 207.811 83.0094 205.374L93.9611 199.967ZM89.985 217.482C89.985 217.482 120.329 207.963 122.84 219.538C125.421 231.569 106.168 229.056 96.7513 227.609C76.6616 224.563 73.1738 221.746 78.266 220.451L89.985 217.482ZM83.0792 236.671C83.0792 236.671 108.959 229.361 110.842 239.26C112.795 249.54 96.542 246.875 88.6596 245.428C71.7787 242.306 68.849 239.869 73.1738 238.879L83.0792 236.671ZM79.0333 252.434C79.0333 252.434 104.076 242.154 106.866 251.749C109.796 261.724 93.403 260.963 85.3811 260.43C68.2909 259.287 65.1519 257.231 69.3373 255.708L79.0333 252.434ZM95.7747 172.478C95.7747 172.478 107.215 133.718 120.189 140.723C133.722 148.034 118.097 165.548 110.284 173.924C93.6123 191.819 88.4504 193.038 90.6825 186.794L95.7747 172.478Z" fill="#0474C0"/>
<path opacity="0.65" d="M83.4279 196.998C85.3811 202.252 87.404 198.064 87.0552 175.904C86.9157 165.548 86.2182 144.379 75.7548 149.024C65.6402 153.516 78.9636 184.814 78.9636 184.814L83.4279 196.998ZM68.9885 200.12C68.9885 200.12 47.0851 175.219 55.3163 167.452C63.8265 159.304 70.8021 179.102 74.0109 188.85C80.9167 209.638 80.2192 214.359 76.8011 210.095L68.9885 200.12ZM64.3846 222.507C64.3846 222.507 44.3647 206.973 49.5963 199.663C55.0373 192.124 62.9895 206.135 66.7563 213.065C74.7782 227.914 74.9177 231.569 71.709 228.828L64.3846 222.507ZM58.9436 244.743C58.9436 244.743 38.9237 229.209 44.1554 221.898C49.5963 214.359 57.5485 228.371 61.3153 235.3C69.3373 250.15 69.4768 253.805 66.268 251.063L58.9436 244.743ZM93.9611 199.967C93.9611 199.967 122.003 184.052 126.537 194.865C131.28 206.135 111.958 207.811 102.471 208.42C82.2421 209.791 78.266 207.811 83.0094 205.374L93.9611 199.967ZM89.985 217.482C89.985 217.482 120.329 207.963 122.84 219.538C125.421 231.569 106.168 229.056 96.7513 227.609C76.6616 224.563 73.1738 221.746 78.266 220.451L89.985 217.482ZM83.0792 236.671C83.0792 236.671 108.959 229.361 110.842 239.26C112.795 249.54 96.542 246.875 88.6596 245.428C71.7787 242.306 68.849 239.869 73.1738 238.879L83.0792 236.671ZM79.0333 252.434C79.0333 252.434 104.076 242.154 106.866 251.749C109.796 261.724 93.403 260.963 85.3811 260.43C68.2909 259.287 65.1519 257.231 69.3373 255.708L79.0333 252.434ZM95.7747 172.478C95.7747 172.478 107.215 133.718 120.189 140.723C133.722 148.034 118.097 165.548 110.284 173.924C93.6123 191.819 88.4504 193.038 90.6825 186.794L95.7747 172.478Z" fill="#100B20"/>
<path d="M114.748 154.583C114.748 154.583 86.0787 192.809 79.1729 211.923C71.2905 233.93 65.9193 258.678 64.8729 279.162" stroke="#CCCCCC" stroke-width="1.252" stroke-miterlimit="10" stroke-linecap="round" stroke-linejoin="round"/>
<path d="M84.8928 199.434L80.9167 162.959" stroke="#CCCCCC" stroke-width="1.252" stroke-miterlimit="10" stroke-linecap="round" stroke-linejoin="round"/>
<path d="M79.1729 211.923L64.7334 181.235" stroke="#CCCCCC" stroke-width="1.252" stroke-miterlimit="10" stroke-linecap="round" stroke-linejoin="round"/>
<path d="M81.2655 207.354L111.54 200.653" stroke="#CCCCCC" stroke-width="1.252" stroke-miterlimit="10" stroke-linecap="round" stroke-linejoin="round"/>
<path d="M73.5226 229.285L55.7349 207.201" stroke="#CCCCCC" stroke-width="1.252" stroke-miterlimit="10" stroke-linecap="round" stroke-linejoin="round"/>
<path d="M75.9641 222.051L98.7743 221.822" stroke="#CCCCCC" stroke-width="1.252" stroke-miterlimit="10" stroke-linecap="round" stroke-linejoin="round"/>
<path d="M71.5695 240.098L89.0782 240.859" stroke="#CCCCCC" stroke-width="1.252" stroke-miterlimit="10" stroke-linecap="round" stroke-linejoin="round"/>
<path d="M68.0119 251.673L58.5948 238.042" stroke="#CCCCCC" stroke-width="1.252" stroke-miterlimit="10" stroke-linecap="round" stroke-linejoin="round"/>
<path d="M67.3143 256.698L87.7528 255.632" stroke="#CCCCCC" stroke-width="1.252" stroke-miterlimit="10" stroke-linecap="round" stroke-linejoin="round"/>
<path d="M28.251 227.229C31.8085 228.676 30.6924 225.401 19.7407 214.74C14.6486 209.714 3.97592 199.739 1.11593 208.115C-1.6743 216.187 20.1593 223.878 20.1593 223.878L28.251 227.229ZM22.6705 237.128C22.6705 237.128 -0.209428 237.585 -0.000160093 228.98C0.209107 219.995 13.2535 225.706 19.6012 228.676C33.1339 234.92 35.087 237.585 31.3202 237.509L22.6705 237.128ZM31.2505 250.759C31.2505 250.759 13.8115 254.718 12.8349 248.094C11.8583 241.24 22.531 243.525 27.7627 244.743C38.9236 247.332 40.807 249.083 37.8773 249.617L31.2505 250.759ZM39.4817 264.846C39.4817 264.846 22.0427 268.806 21.0661 262.181C20.0895 255.328 30.7622 257.612 35.9939 258.831C47.1548 261.42 49.0382 263.171 46.1085 263.704L39.4817 264.846ZM34.808 222.584C34.808 222.584 40.807 198.444 48.3407 201.11C56.1533 203.851 47.4338 215.959 43.109 221.746C33.8314 234.158 30.9017 235.453 32.0875 231.569L34.808 222.584ZM41.4348 233.473C41.4348 233.473 51.6889 211.161 58.5948 215.349C65.7099 219.766 55.0372 229.665 49.7358 234.463C38.3656 244.591 35.2963 245.276 37.11 241.697L41.4348 233.473ZM47.3641 246.875C47.3641 246.875 56.5718 228.295 62.2221 232.026C68.1513 235.91 58.9435 244.058 54.3397 247.941C44.5041 256.241 41.8534 256.698 43.5275 253.729L47.3641 246.875ZM53.0143 257.003C53.0143 257.003 60.3387 237.433 66.4074 240.479C72.6854 243.677 64.3147 252.815 60.0596 257.231C51.1309 266.598 48.5499 267.435 49.8753 264.237L53.0143 257.003ZM22.3217 207.963C22.3217 207.963 9.0681 182.301 18.8339 178.189C29.0183 173.924 29.9251 191.591 30.1344 200.272C30.6227 218.7 28.7393 222.355 26.7861 218.015L22.3217 207.963Z" fill="#0474C0"/>
<path opacity="0.65" d="M28.251 227.229C31.8085 228.676 30.6924 225.401 19.7407 214.74C14.6486 209.714 3.97592 199.739 1.11593 208.115C-1.6743 216.187 20.1593 223.878 20.1593 223.878L28.251 227.229ZM22.6705 237.128C22.6705 237.128 -0.209428 237.585 -0.000160093 228.98C0.209107 219.995 13.2535 225.706 19.6012 228.676C33.1339 234.92 35.087 237.585 31.3202 237.509L22.6705 237.128ZM31.2505 250.759C31.2505 250.759 13.8115 254.718 12.8349 248.094C11.8583 241.24 22.531 243.525 27.7627 244.743C38.9236 247.332 40.807 249.083 37.8773 249.617L31.2505 250.759ZM39.4817 264.846C39.4817 264.846 22.0427 268.806 21.0661 262.181C20.0895 255.328 30.7622 257.612 35.9939 258.831C47.1548 261.42 49.0382 263.171 46.1085 263.704L39.4817 264.846ZM34.808 222.584C34.808 222.584 40.807 198.444 48.3407 201.11C56.1533 203.851 47.4338 215.959 43.109 221.746C33.8314 234.158 30.9017 235.453 32.0875 231.569L34.808 222.584ZM41.4348 233.473C41.4348 233.473 51.6889 211.161 58.5948 215.349C65.7099 219.766 55.0372 229.665 49.7358 234.463C38.3656 244.591 35.2963 245.276 37.11 241.697L41.4348 233.473ZM47.3641 246.875C47.3641 246.875 56.5718 228.295 62.2221 232.026C68.1513 235.91 58.9435 244.058 54.3397 247.941C44.5041 256.241 41.8534 256.698 43.5275 253.729L47.3641 246.875ZM53.0143 257.003C53.0143 257.003 60.3387 237.433 66.4074 240.479C72.6854 243.677 64.3147 252.815 60.0596 257.231C51.1309 266.598 48.5499 267.435 49.8753 264.237L53.0143 257.003ZM22.3217 207.963C22.3217 207.963 9.0681 182.301 18.8339 178.189C29.0183 173.924 29.9251 191.591 30.1344 200.272C30.6227 218.7 28.7393 222.355 26.7861 218.015L22.3217 207.963Z" fill="#E5E5E5"/>
<path d="M22.9497 188.164C22.9497 188.164 27.4838 223.65 33.4131 237.052C40.2492 252.358 50.5033 268.806 59.9901 279.467" stroke="#CCCCCC" stroke-width="1.252" stroke-miterlimit="10" stroke-linecap="round" stroke-linejoin="round"/>
<path d="M30.1345 227.533L10.3936 211.923" stroke="#CCCCCC" stroke-width="1.252" stroke-miterlimit="10" stroke-linecap="round" stroke-linejoin="round"/>
<path d="M33.413 236.976L11.3701 230.351" stroke="#CCCCCC" stroke-width="1.252" stroke-miterlimit="10" stroke-linecap="round" stroke-linejoin="round"/>
<path d="M32.2272 233.549L43.8066 212.684" stroke="#CCCCCC" stroke-width="1.252" stroke-miterlimit="10" stroke-linecap="round" stroke-linejoin="round"/>
<path d="M39.0633 248.855L19.5316 248.322" stroke="#CCCCCC" stroke-width="1.252" stroke-miterlimit="10" stroke-linecap="round" stroke-linejoin="round"/>
<path d="M36.7614 243.829L47.8525 230.427" stroke="#CCCCCC" stroke-width="1.252" stroke-miterlimit="10" stroke-linecap="round" stroke-linejoin="round"/>
<path d="M43.3881 255.252L52.3866 245.504" stroke="#CCCCCC" stroke-width="1.252" stroke-miterlimit="10" stroke-linecap="round" stroke-linejoin="round"/>
<path d="M47.2247 263.019L35.994 261.8" stroke="#CCCCCC" stroke-width="1.252" stroke-miterlimit="10" stroke-linecap="round" stroke-linejoin="round"/>
<path d="M49.3871 265.912L58.9436 253.5" stroke="#CCCCCC" stroke-width="1.252" stroke-miterlimit="10" stroke-linecap="round" stroke-linejoin="round"/>
<path d="M167.065 194.409H93.3334V210.857H167.065V194.409Z" fill="white" stroke="#263238" stroke-miterlimit="10" stroke-linecap="round" stroke-linejoin="round"/>
<path d="M94.1007 198.673H107.006" stroke="#263238" stroke-miterlimit="10" stroke-linecap="round" stroke-linejoin="round"/>
<path d="M111.33 203.166H113.074" stroke="#263238" stroke-miterlimit="10" stroke-linecap="round" stroke-linejoin="round"/>
<path d="M93.8915 203.166H108.401" stroke="#263238" stroke-miterlimit="10" stroke-linecap="round" stroke-linejoin="round"/>
<path d="M94.1705 207.887H100.17" stroke="#263238" stroke-miterlimit="10" stroke-linecap="round" stroke-linejoin="round"/>
<path d="M151.928 195.018C151.928 195.018 149.836 202.023 151.928 210.552H181.644C181.644 210.552 178.505 200.729 181.644 195.018H151.928Z" fill="white"/>
<mask id="mask0_7_144" style="mask-type:luminance" maskUnits="userSpaceOnUse" x="150" y="195" width="32" height="16">
<path d="M151.928 195.018C151.928 195.018 149.836 202.023 151.928 210.552H181.644C181.644 210.552 178.505 200.729 181.644 195.018H151.928Z" fill="white"/>
</mask>
<g mask="url(#mask0_7_144)">
<path opacity="0.24" d="M151.928 195.018C151.928 195.018 149.836 202.023 151.928 210.552H181.644C181.644 210.552 178.505 200.729 181.644 195.018H151.928Z" fill="black" stroke="#263238" stroke-miterlimit="10" stroke-linecap="round" stroke-linejoin="round"/>
</g>
<path d="M151.928 195.018C151.928 195.018 149.836 202.023 151.928 210.552H181.644C181.644 210.552 178.505 200.729 181.644 195.018H151.928Z" stroke="#263238" stroke-miterlimit="10" stroke-linecap="round" stroke-linejoin="round"/>
<path d="M94.1704 207.887V196.617C94.1704 196.008 94.5889 195.551 95.147 195.551H182.83C183.249 195.551 183.528 195.17 183.528 194.789C183.528 194.332 183.179 194.028 182.83 194.028H92.7753C92.2172 194.028 91.7987 194.485 91.7987 195.094V209.41C91.7987 210.324 92.4963 211.085 93.3333 211.085H182.83C183.249 211.085 183.528 210.704 183.528 210.324C183.528 209.867 183.179 209.562 182.83 209.562H95.705C94.868 209.562 94.1704 208.801 94.1704 207.887Z" fill="#263238" stroke="#263238" stroke-miterlimit="10" stroke-linecap="round" stroke-linejoin="round"/>
<path d="M167.065 228.447H93.3334V244.895H167.065V228.447Z" fill="white" stroke="#263238" stroke-miterlimit="10" stroke-linecap="round" stroke-linejoin="round"/>
<path d="M94.5192 231.645H107.494" stroke="#263238" stroke-miterlimit="10" stroke-linecap="round" stroke-linejoin="round"/>
<path d="M111.819 236.138H113.562" stroke="#263238" stroke-miterlimit="10" stroke-linecap="round" stroke-linejoin="round"/>
<path d="M94.3099 236.138H108.889" stroke="#263238" stroke-miterlimit="10" stroke-linecap="round" stroke-linejoin="round"/>
<path d="M94.6587 240.783H100.588" stroke="#263238" stroke-miterlimit="10" stroke-linecap="round" stroke-linejoin="round"/>
<path d="M152.347 228.98C152.347 228.98 150.254 235.986 152.347 244.515H181.575C181.575 244.515 178.436 234.691 181.575 228.98H152.347Z" fill="white"/>
<mask id="mask1_7_144" style="mask-type:luminance" maskUnits="userSpaceOnUse" x="151" y="228" width="31" height="17">
<path d="M152.347 228.98C152.347 228.98 150.254 235.986 152.347 244.515H181.575C181.575 244.515 178.436 234.691 181.575 228.98H152.347Z" fill="white"/>
</mask>
<g mask="url(#mask1_7_144)">
<path opacity="0.24" d="M152.347 228.98C152.347 228.98 150.254 235.986 152.347 244.515H181.575C181.575 244.515 178.436 234.691 181.575 228.98H152.347Z" fill="black" stroke="#263238" stroke-miterlimit="10" stroke-linecap="round" stroke-linejoin="round"/>
</g>
<path d="M152.347 228.98C152.347 228.98 150.254 235.986 152.347 244.515H181.575C181.575 244.515 178.436 234.691 181.575 228.98H152.347Z" stroke="#263238" stroke-miterlimit="10" stroke-linecap="round" stroke-linejoin="round"/>
<path d="M94.1704 241.849V230.579C94.1704 229.97 94.5889 229.513 95.147 229.513H182.83C183.249 229.513 183.528 229.132 183.528 228.752C183.528 228.295 183.179 227.99 182.83 227.99H92.7753C92.2172 227.99 91.7987 228.447 91.7987 229.056V243.449C91.7987 244.362 92.4963 245.124 93.3333 245.124H182.83C183.249 245.124 183.528 244.743 183.528 244.362C183.528 243.905 183.179 243.601 182.83 243.601H95.705C94.868 243.525 94.1704 242.763 94.1704 241.849Z" fill="#263238" stroke="#263238" stroke-miterlimit="10" stroke-linecap="round" stroke-linejoin="round"/>
<path d="M94.2401 260.582C94.7284 258.678 96.6816 250.835 94.3099 245.885H179.203V260.582H94.2401Z" fill="white" stroke="#263238" stroke-miterlimit="10" stroke-linecap="round" stroke-linejoin="round"/>
<path d="M144.883 249.16H131.978" stroke="#263238" stroke-miterlimit="10" stroke-linecap="round" stroke-linejoin="round"/>
<path d="M127.653 253.652H125.909" stroke="#263238" stroke-miterlimit="10" stroke-linecap="round" stroke-linejoin="round"/>
<path d="M145.092 253.652H130.583" stroke="#263238" stroke-miterlimit="10" stroke-linecap="round" stroke-linejoin="round"/>
<path d="M144.813 258.298H138.814" stroke="#263238" stroke-miterlimit="10" stroke-linecap="round" stroke-linejoin="round"/>
<path d="M145.371 259.135V247.865C145.371 247.256 144.953 246.799 144.395 246.799H92.4963C92.0777 246.799 91.7987 246.418 91.7987 246.038C91.7987 245.581 92.1475 245.276 92.4963 245.276H182.551C183.109 245.276 183.528 245.733 183.528 246.342V260.734C183.528 261.648 182.83 262.41 181.993 262.41H92.4963C92.0777 262.41 91.7987 262.029 91.7987 261.648C91.7987 261.191 92.1475 260.887 92.4963 260.887H143.837C144.674 260.81 145.371 260.049 145.371 259.135Z" fill="#263238" stroke="#263238" stroke-miterlimit="10" stroke-linecap="round" stroke-linejoin="round"/>
<path d="M94.2401 277.868C94.7284 275.964 96.6816 268.121 94.3099 263.171H179.203V277.868H94.2401Z" fill="white" stroke="#263238" stroke-miterlimit="10" stroke-linecap="round" stroke-linejoin="round"/>
<path d="M144.883 266.522H131.908" stroke="#263238" stroke-miterlimit="10" stroke-linecap="round" stroke-linejoin="round"/>
<path d="M127.583 271.014H125.839" stroke="#263238" stroke-miterlimit="10" stroke-linecap="round" stroke-linejoin="round"/>
<path d="M145.092 271.014H130.583" stroke="#263238" stroke-miterlimit="10" stroke-linecap="round" stroke-linejoin="round"/>
<path d="M144.743 275.659H138.814" stroke="#263238" stroke-miterlimit="10" stroke-linecap="round" stroke-linejoin="round"/>
<path d="M145.371 276.421V265.151C145.371 264.542 144.953 264.085 144.395 264.085H92.4963C92.0777 264.085 91.7987 263.704 91.7987 263.323C91.7987 262.866 92.1475 262.562 92.4963 262.562H182.551C183.109 262.562 183.528 263.019 183.528 263.628V277.944C183.528 278.858 182.83 279.619 181.993 279.619H92.4963C92.0777 279.619 91.7987 279.239 91.7987 278.858C91.7987 278.401 92.1475 278.096 92.4963 278.096H143.837C144.674 278.096 145.371 277.335 145.371 276.421Z" fill="#0474C0" stroke="#263238" stroke-miterlimit="10" stroke-linecap="round" stroke-linejoin="round"/>
<path d="M94.2401 226.086C94.7284 224.183 96.6816 216.339 94.3099 211.39H179.203V226.086H94.2401Z" fill="white" stroke="#263238" stroke-miterlimit="10" stroke-linecap="round" stroke-linejoin="round"/>
<path d="M145.092 214.664H132.118" stroke="#263238" stroke-miterlimit="10" stroke-linecap="round" stroke-linejoin="round"/>
<path d="M127.862 219.157H126.049" stroke="#263238" stroke-miterlimit="10" stroke-linecap="round" stroke-linejoin="round"/>
<path d="M145.301 219.157H130.792" stroke="#263238" stroke-miterlimit="10" stroke-linecap="round" stroke-linejoin="round"/>
<path d="M145.022 223.802H139.023" stroke="#263238" stroke-miterlimit="10" stroke-linecap="round" stroke-linejoin="round"/>
<path d="M145.371 224.64V213.37C145.371 212.76 144.953 212.303 144.395 212.303H92.4963C92.0777 212.303 91.7987 211.923 91.7987 211.542C91.7987 211.085 92.1475 210.781 92.4963 210.781H182.551C183.109 210.781 183.528 211.237 183.528 211.847V226.163C183.528 227.076 182.83 227.838 181.993 227.838H92.4963C92.0777 227.838 91.7987 227.457 91.7987 227.076C91.7987 226.62 92.1475 226.315 92.4963 226.315H143.837C144.674 226.315 145.371 225.553 145.371 224.64Z" fill="#0474C0" stroke="#263238" stroke-miterlimit="10" stroke-linecap="round" stroke-linejoin="round"/>
<path d="M125.421 157.552C125.421 157.552 118.236 157.781 107.773 155.039C97.3095 152.222 88.7295 154.278 87.0553 165.167C85.451 176.057 112.167 187.25 130.792 191.286C149.417 195.322 167.972 197.15 177.04 192.809C186.109 188.469 185.899 173.011 182.412 165.929C178.924 158.847 167.275 157.781 161.276 158.847C155.137 159.837 125.421 157.552 125.421 157.552Z" fill="#263238" stroke="#263238" stroke-miterlimit="10" stroke-linecap="round" stroke-linejoin="round"/>
<path d="M172.367 109.807C171.39 102.497 170.344 95.1863 169.367 87.876C168.46 81.0987 168.042 73.7884 166.437 67.1635C164.345 57.2641 161.206 51.9337 151.789 50.0299C142.372 48.1262 131.908 59.1678 131.908 64.1175C131.908 69.0672 135.117 80.2611 130.164 97.8515C128.49 103.867 135.047 104.705 143 102.04L172.367 109.807Z" fill="#263238" stroke="#263238" stroke-miterlimit="10" stroke-linecap="round" stroke-linejoin="round"/>
<path d="M147.115 94.5771C147.115 94.5771 135.606 96.3286 130.165 97.8516C124.724 99.3745 122.84 101.507 120.887 105.543C118.934 109.579 116.074 124.504 113.284 130.824C110.494 137.144 105.401 138.82 104.564 145.445C103.727 152.07 108.61 154.43 112.238 155.192C115.865 155.953 120.469 156.182 120.469 156.182C120.469 156.182 126.398 171.412 137.908 172.554C149.417 173.696 157.997 164.939 163.229 161.664C168.461 158.39 168.81 151.004 169.019 142.399C169.228 133.794 173.832 114.604 172.576 109.274C171.321 103.943 169.507 103.03 161.625 98.613C158.137 96.7093 151.998 94.1964 147.115 94.5771Z" fill="#0474C0" stroke="#263238" stroke-miterlimit="10" stroke-linecap="round" stroke-linejoin="round"/>
<path d="M110.912 134.708C108.261 138.211 105.192 140.419 104.564 145.445C104.425 146.587 104.425 147.577 104.564 148.491C105.262 149.633 107.494 152.45 111.749 151.08C117.05 149.404 116.492 141.333 113.284 136.307C112.586 135.317 111.819 134.86 110.912 134.708Z" fill="#DBDBDB" stroke="#263238" stroke-miterlimit="10" stroke-linecap="round" stroke-linejoin="round"/>
<path d="M146.278 120.315C151.161 117.879 153.812 113.691 156.044 105.695C157.09 101.964 157.718 98.9937 157.997 96.9377C154.718 95.567 150.533 94.3486 147.045 94.6532C147.045 94.6532 142.093 95.4147 137.14 96.3285C136.721 99.146 135.745 107.142 136.861 113.081C138.326 120.315 141.395 122.752 146.278 120.315Z" fill="#DBDBDB" stroke="#263238" stroke-miterlimit="10" stroke-linecap="round" stroke-linejoin="round"/>
<path d="M123.189 148.11C123.189 148.11 126.677 138.591 126.677 135.926C126.677 133.261 125.072 130.596 123.886 127.169C122.701 123.742 125.84 118.031 125.84 118.031C125.84 118.031 127.793 101.507 129.676 98.613" stroke="#263238" stroke-miterlimit="10" stroke-linecap="round" stroke-linejoin="round"/>
<path d="M106.657 129.453L109.307 126.407C109.307 126.407 110.912 127.473 114.748 128.92C121.794 131.509 125.072 133.109 125.421 137.677C125.421 137.677 130.164 134.403 134.838 135.012C139.512 135.621 143.767 137.677 145.162 137.906C146.557 138.134 146.557 138.134 146.557 138.134L146.906 140.8L144.255 155.877L123.817 153.593L109.866 140.267L106.657 129.453Z" fill="#DBDBDB" stroke="#263238" stroke-miterlimit="10" stroke-linecap="round" stroke-linejoin="round"/>
<path d="M105.75 128.844L122.352 144.302L124.096 141.256L147.813 140.647L146.418 157.4L123.886 156.258L122.352 157.4L110.144 147.501L105.75 128.844Z" fill="#263238" stroke="#263238" stroke-miterlimit="10" stroke-linecap="round" stroke-linejoin="round"/>
<path d="M163.508 123.742L163.159 145.445C163.159 145.445 152.835 151.765 147.115 153.44C141.395 155.116 137.838 155.192 137.349 155.192C136.861 155.192 134.559 151.156 133.303 149.861C132.048 148.567 131.071 148.491 128.839 147.272C125.7 145.597 124.375 145.292 124.584 146.054C124.793 146.815 124.933 147.577 126.537 148.567C128.142 149.557 129.188 150.318 129.188 150.318L129.537 151.08C129.537 151.08 125.7 150.471 124.096 150.09C122.491 149.709 118.515 146.663 118.515 146.663C118.515 146.663 116.841 146.587 118.027 148.871C119.213 151.156 120.399 151.232 120.399 151.232C120.399 151.232 120.747 153.516 122.143 154.887C123.538 156.258 124.584 157.019 124.584 157.019C124.584 157.019 121.236 156.029 121.585 157.019C121.933 158.009 124.026 158.39 126.677 159.685C129.327 160.979 135.257 161.208 138.535 161.817C141.814 162.426 149.696 162.959 156.672 162.197C163.647 161.436 174.111 156.258 176.064 154.583C178.017 152.907 176.761 133.642 176.273 129.225C175.785 124.808 174.669 116.66 173.971 112.853C173.274 109.045 170.483 103.715 168.739 102.573C166.996 101.431 163.857 104.857 163.508 123.742Z" fill="#DBDBDB" stroke="#263238" stroke-miterlimit="10" stroke-linecap="round" stroke-linejoin="round"/>
<path d="M120.399 151.156C120.399 151.156 124.584 153.821 127.653 154.583L120.399 151.156Z" fill="#DBDBDB"/>
<path d="M120.399 151.156C120.399 151.156 124.584 153.821 127.653 154.583" stroke="#263238" stroke-miterlimit="10" stroke-linecap="round" stroke-linejoin="round"/>
<path d="M124.584 156.867C124.584 156.867 126.816 157.781 128.7 157.781L124.584 156.867Z" fill="#DBDBDB"/>
<path d="M124.584 156.867C124.584 156.867 126.816 157.781 128.7 157.781" stroke="#263238" stroke-miterlimit="10" stroke-linecap="round" stroke-linejoin="round"/>
<path d="M120.957 153.06C120.957 153.06 123.886 155.496 128.211 156.639L120.957 153.06Z" fill="#DBDBDB"/>
<path d="M120.957 153.06C120.957 153.06 123.886 155.496 128.211 156.639" stroke="#263238" stroke-miterlimit="10" stroke-linecap="round" stroke-linejoin="round"/>
<path d="M158.764 161.664C165.6 160.294 174.32 155.953 176.064 154.354C178.017 152.603 176.761 133.413 176.273 128.997C175.785 124.58 174.669 116.432 173.971 112.624C173.274 108.817 170.483 103.487 168.74 102.344C166.996 101.202 163.857 104.857 163.508 123.666L163.159 145.369C163.159 145.369 159.183 147.805 154.788 150.09C156.393 152.146 159.322 156.41 158.764 161.664Z" fill="#0474C0" stroke="#263238" stroke-miterlimit="10" stroke-linecap="round" stroke-linejoin="round"/>
<path d="M140.907 92.3688C140.907 92.3688 139.372 102.268 139.163 108.36C139.023 114.452 143.209 120.62 149.138 112.777C155.067 104.933 154.16 91.988 154.16 91.988C154.16 91.988 148.092 95.567 140.907 92.3688Z" fill="#DBDBDB" stroke="#263238" stroke-miterlimit="10" stroke-linecap="round" stroke-linejoin="round"/>
<path d="M141.395 96.6331C141.395 96.6331 141.673 101.887 141.256 104.781" stroke="#263238" stroke-miterlimit="10" stroke-linecap="round" stroke-linejoin="round"/>
<path d="M106.238 143.389C106.238 143.389 105.82 144.759 106.517 145.978C107.215 147.196 110.912 149.633 110.912 148.719C110.912 147.729 109.029 146.435 108.959 145.749C108.889 145.064 108.331 144.074 108.331 144.074C108.331 144.074 107.006 142.246 106.238 143.389Z" fill="#DBDBDB" stroke="#263238" stroke-miterlimit="10" stroke-linecap="round" stroke-linejoin="round"/>
<path d="M104.425 137.754C104.425 137.754 104.285 140.571 104.704 141.866C105.122 143.16 109.796 146.739 110.982 146.054C112.167 145.369 108.47 141.866 107.633 140.8C106.796 139.733 104.425 137.754 104.425 137.754Z" fill="#DBDBDB" stroke="#263238" stroke-miterlimit="10" stroke-linecap="round" stroke-linejoin="round"/>
<path d="M104.425 134.327C104.425 134.327 104.076 137.144 104.425 138.515C104.773 139.886 109.238 143.769 110.424 143.16C111.679 142.551 108.191 138.82 107.424 137.677C106.657 136.459 104.425 134.327 104.425 134.327Z" fill="#DBDBDB" stroke="#263238" stroke-miterlimit="10" stroke-linecap="round" stroke-linejoin="round"/>
<path d="M106.587 131.129C106.587 131.129 103.936 129.606 103.518 131.509C103.099 133.413 105.122 135.469 106.936 137.144C108.819 138.82 109.587 138.515 109.587 136.916C109.587 135.393 106.587 131.129 106.587 131.129Z" fill="#DBDBDB" stroke="#263238" stroke-miterlimit="10" stroke-linecap="round" stroke-linejoin="round"/>
<path d="M106.308 191.591C106.308 191.591 102.82 193.647 96.3329 193.875C89.8456 194.104 84.4744 190.296 87.4739 187.25C90.4734 184.205 95.147 182.453 99.3324 183.215C103.518 183.976 109.796 185.728 109.796 185.728L106.308 191.591Z" fill="#DBDBDB" stroke="#263238" stroke-miterlimit="10" stroke-linecap="round" stroke-linejoin="round"/>
<path d="M107.285 185.194C107.633 185.271 107.912 185.271 108.261 185.271C106.099 184.661 102.262 183.671 99.4022 183.138C95.2168 182.377 90.5432 184.128 87.5437 187.174C86.0091 188.697 86.6369 190.449 88.5203 191.819C88.3808 190.373 88.6598 188.012 91.3105 186.717C95.1471 184.738 103.309 184.738 107.285 185.194Z" fill="#DBDBDB" stroke="#263238" stroke-miterlimit="10" stroke-linecap="round" stroke-linejoin="round"/>
<path d="M179.133 170.498C179.133 170.498 172.157 181.92 165.182 186.489C158.206 191.058 126.328 191.591 119.841 191.591C113.353 191.591 106.378 191.591 106.378 191.591V186.261C106.378 186.261 127.793 182.986 139.651 175.6C151.51 168.213 157.788 160.141 167.065 156.791C176.343 153.516 184.504 159.075 184.295 172.782" fill="#263238"/>
<path d="M179.133 170.498C179.133 170.498 172.157 181.92 165.182 186.489C158.206 191.058 126.328 191.591 119.841 191.591C113.353 191.591 106.378 191.591 106.378 191.591V186.261C106.378 186.261 127.793 182.986 139.651 175.6C151.51 168.213 157.788 160.141 167.065 156.791C176.343 153.516 184.504 159.075 184.295 172.782" stroke="#263238" stroke-miterlimit="10" stroke-linecap="round" stroke-linejoin="round"/>
<path d="M174.459 179.255C170.692 183.138 164.205 188.24 154.091 190.22" stroke="#DBDBDB" stroke-miterlimit="10" stroke-linecap="round" stroke-linejoin="round"/>
<path d="M178.993 173.011C178.993 173.011 178.435 174.305 177.04 176.133" stroke="#DBDBDB" stroke-miterlimit="10" stroke-linecap="round" stroke-linejoin="round"/>
<path d="M143.767 174.153C143.767 174.153 139.233 178.341 132.606 178.722" stroke="#DBDBDB" stroke-miterlimit="10" stroke-linecap="round" stroke-linejoin="round"/>
<path d="M102.192 159.685C101.913 159.685 101.704 159.608 101.425 159.608L102.192 159.685Z" fill="#263238"/>
<path d="M102.192 159.685C101.913 159.685 101.704 159.608 101.425 159.608" stroke="#263238" stroke-miterlimit="10" stroke-linecap="round" stroke-linejoin="round"/>
<path d="M167.693 192.581C167.693 192.581 173.483 190.296 178.366 189.535C183.249 188.773 187.225 189.535 188.62 192.809C190.015 196.084 189.108 200.196 184.225 201.186C179.342 202.176 170.483 200.196 169.576 200.196C168.67 200.196 167.275 199.434 167.275 199.434L167.693 192.581Z" fill="#DBDBDB" stroke="#263238" stroke-miterlimit="10" stroke-linecap="round" stroke-linejoin="round"/>
<path d="M183.039 189.307C184.504 189.916 187.294 191.667 186.806 195.627C186.109 200.957 180.319 200.957 176.343 200.957C176.064 200.957 175.785 201.033 175.506 201.11C178.435 201.49 181.854 201.719 184.295 201.262C189.178 200.272 190.085 196.16 188.69 192.886C187.713 190.677 185.69 189.611 183.039 189.307Z" fill="#DBDBDB" stroke="#263238" stroke-miterlimit="10" stroke-linecap="round" stroke-linejoin="round"/>
<path d="M99.6114 153.973C99.6114 153.973 91.729 152.45 86.5671 156.791C81.4749 161.131 82.1724 165.7 87.0554 172.249C91.9383 178.874 104.494 190.525 131.699 195.855C158.904 201.186 167.275 199.434 167.275 199.434L167.763 192.581C167.763 192.581 150.812 193.571 135.187 181.159C119.98 168.975 113.144 160.979 102.262 159.685" fill="#263238"/>
<path d="M99.6114 153.973C99.6114 153.973 91.729 152.45 86.5671 156.791C81.4749 161.131 82.1724 165.7 87.0554 172.249C91.9383 178.874 104.494 190.525 131.699 195.855C158.904 201.186 167.275 199.434 167.275 199.434L167.763 192.581C167.763 192.581 150.812 193.571 135.187 181.159C119.98 168.975 113.144 160.979 102.262 159.685" stroke="#263238" stroke-miterlimit="10" stroke-linecap="round" stroke-linejoin="round"/>
<path d="M99.1928 159.761C98.3558 159.837 97.5187 159.913 96.6816 160.065" stroke="#DBDBDB" stroke-miterlimit="10" stroke-linecap="round" stroke-linejoin="round"/>
<path d="M164.345 192.429C164.345 192.429 148.301 192.048 130.165 176.818C117.329 166.081 109.726 161.36 103.727 160.065" stroke="#DBDBDB" stroke-miterlimit="10" stroke-linecap="round" stroke-linejoin="round"/>
<path d="M164.205 81.7841C159.95 84.2208 159.322 79.2712 159.322 76.3013C159.392 76.2252 159.392 76.2252 159.392 76.1491C159.671 74.7784 159.392 67.925 155.765 65.1836C152.556 62.7468 148.371 60.6908 144.464 60.6908C141.674 60.6908 139.233 62.5945 137.768 65.0313C136.024 67.925 136.163 71.3517 136.024 74.7022C135.884 78.1289 135.605 81.7841 136.233 85.1346C137.07 89.6274 140.907 99.0699 145.58 99.0699C149.836 99.0699 157.299 92.1403 159.88 88.1044C160.159 88.0283 160.787 87.7237 161.485 87.1145C162.392 86.2769 164.345 84.7539 164.205 81.7841Z" fill="#DBDBDB" stroke="#263238" stroke-miterlimit="10" stroke-linecap="round" stroke-linejoin="round"/>
<path d="M145.511 78.7382C145.511 78.7382 143.558 85.2108 143.697 85.8962C143.837 86.6577 146.139 85.8962 146.139 85.8962" stroke="#263238" stroke-miterlimit="10" stroke-linecap="round" stroke-linejoin="round"/>
<path d="M143.767 88.6375C143.767 88.6375 146.278 90.6935 150.324 87.4191" stroke="#263238" stroke-miterlimit="10" stroke-linecap="round" stroke-linejoin="round"/>
<path d="M149.905 81.0226C149.905 81.0226 151.3 84.1447 155.695 82.3933" stroke="#263238" stroke-miterlimit="10" stroke-linecap="round" stroke-linejoin="round"/>
<path d="M137.419 77.2913C137.419 77.2913 138.256 80.4134 142.651 79.2712" stroke="#263238" stroke-miterlimit="10" stroke-linecap="round" stroke-linejoin="round"/>
<path d="M145.232 74.8545C145.232 74.8545 143.697 68.7626 138.535 71.8847" stroke="#263238" stroke-miterlimit="10" stroke-linecap="round" stroke-linejoin="round"/>
<path d="M157.376 83.7574C158.535 80.6855 157.194 77.1693 154.38 75.9038C151.566 74.6383 148.345 76.1027 147.186 79.1746C146.026 82.2465 147.368 85.7627 150.182 87.0282C152.996 88.2937 156.217 86.8293 157.376 83.7574Z" stroke="#263238" stroke-miterlimit="10" stroke-linecap="round" stroke-linejoin="round"/>
<path d="M139.651 84.7539C142.695 84.7539 145.162 82.0605 145.162 78.7381C145.162 75.4157 142.695 72.7224 139.651 72.7224C136.608 72.7224 134.141 75.4157 134.141 78.7381C134.141 82.0605 136.608 84.7539 139.651 84.7539Z" stroke="#263238" stroke-miterlimit="10" stroke-linecap="round" stroke-linejoin="round"/>
<path d="M157.509 82.6979L161.973 81.7841" stroke="#263238" stroke-miterlimit="10" stroke-linecap="round" stroke-linejoin="round"/>
<path d="M134.28 77.2913L135.954 75.9206" stroke="#263238" stroke-miterlimit="10" stroke-linecap="round" stroke-linejoin="round"/>
<path d="M139.721 62.9753C139.721 62.9753 144.604 59.7009 146.278 62.823C148.022 65.8689 155.835 86.353 164.205 81.7841C172.576 77.2151 164.135 62.1376 155.974 57.3402C147.813 52.5429 140.977 56.6549 139.721 62.9753Z" fill="#263238" stroke="#263238" stroke-miterlimit="10" stroke-linecap="round" stroke-linejoin="round"/>
<path d="M144.534 60.6908C144.534 60.6908 141.814 58.1779 140.209 59.3201C138.605 60.4623 138.605 61.9092 138.605 61.9092" stroke="#DBDBDB" stroke-miterlimit="10" stroke-linecap="round" stroke-linejoin="round"/>
<path d="M164.484 76.3775C165.112 76.8344 165.81 77.139 166.507 77.3674" stroke="#DBDBDB" stroke-miterlimit="10" stroke-linecap="round" stroke-linejoin="round"/>
<path d="M143.348 54.4466C143.348 54.4466 148.161 48.6593 153.463 57.6448C156.951 63.5845 158.974 69.448 161.555 73.3316" stroke="#DBDBDB" stroke-miterlimit="10" stroke-linecap="round" stroke-linejoin="round"/>
<path d="M151.231 74.0169C151.231 74.0169 155.067 71.7324 158.346 75.2353" stroke="#DBDBDB" stroke-miterlimit="10" stroke-linecap="round" stroke-linejoin="round"/>
<path d="M144.046 132.271C144.046 132.271 149.278 139.429 157.997 139.429" stroke="#263238" stroke-miterlimit="10" stroke-linecap="round" stroke-linejoin="round"/>
<path d="M18.6248 279.619H259.352" stroke="#263238" stroke-miterlimit="10" stroke-linecap="round" stroke-linejoin="round"/>
</g>
<defs>
<clipPath id="clip0_7_144">
<rect width="280" height="280" fill="white"/>
</clipPath>
</defs>
</svg>
