<svg width="199" height="68" viewBox="0 0 199 68" fill="none" xmlns="http://www.w3.org/2000/svg">
<path d="M9.25887 9.02103C9.28383 15.4275 9.30879 21.8339 9.33374 28.2403C9.00931 29.003 8.36044 30.325 7.08766 31.5198C6.06444 32.4859 5.01626 32.9943 4.31748 33.2994C4.91644 33.4519 6.08939 33.8078 7.21244 34.7993C8.65992 36.0959 9.13409 37.672 9.28383 38.2822V57.6286C9.03427 59.5099 9.80792 61.3403 11.2804 62.2809C12.9025 63.3232 14.6744 62.8402 14.949 62.7385C14.9989 64.391 15.0238 66.0688 15.0737 67.7213C14.4498 67.8738 11.0058 68.6873 7.61174 66.5519C4.39235 64.5435 3.46896 61.3403 3.29426 60.6539V37.1128C3.06965 36.5789 2.64539 35.7908 1.94661 35.0027C1.24783 34.24 0.524087 33.757 0 33.5028C0.524087 33.0452 1.148 32.4096 1.74696 31.5961C2.296 30.8334 2.69531 30.0962 2.96983 29.486C3.19444 21.8085 3.39409 14.1309 3.6187 6.45337C3.81835 5.74154 4.36739 4.13993 5.86479 2.71628C7.26235 1.36889 8.80966 0.911291 9.50844 0.758757C10.1823 0.529956 10.9809 0.301154 11.9043 0.174043C13.1521 -0.0293364 14.2502 -0.0293364 15.1237 0.0469307V4.82634C14.7992 4.77549 12.7278 4.52127 11.0058 5.99577C9.68314 7.11435 9.33374 8.56343 9.25887 9.02103Z" fill="url(#paint0_linear_10_1125)"/>
<path d="M18.7922 16.0376C18.7173 29.3844 18.6674 42.7057 18.5925 56.0524C21.5124 55.4169 24.8816 54.8576 28.65 54.6034C34.2403 54.222 39.1567 54.6034 43.1498 55.1881C40.6791 54.0695 37.1602 52.7729 32.7928 52.1628C28.9245 51.6289 25.5554 51.7815 23.0597 52.0865C23.0597 40.2906 23.0597 28.52 23.0597 16.724C22.5856 16.4952 21.9117 16.2156 21.0882 16.063C20.1149 15.9359 19.3412 15.9613 18.7922 16.0376Z" fill="url(#paint1_linear_10_1125)"/>
<path d="M50.5869 54.6796C48.79 53.0526 46.3193 51.1459 43.1249 49.4935C37.909 46.8241 33.0923 46.0614 29.9977 45.8072C29.848 33.7316 29.6983 21.656 29.5485 9.58034C29.0743 9.45323 28.5003 9.35154 27.8016 9.32612C27.0279 9.3007 26.379 9.35154 25.8799 9.45323C25.83 22.7491 25.805 36.045 25.7551 49.3409C28.9995 49.2138 33.1423 49.3664 37.859 50.3324C43.1498 51.4256 47.4424 53.1289 50.5869 54.6796Z" fill="url(#paint2_linear_10_1125)"/>
<path d="M57.1753 55.3406C57.2253 41.6888 57.2502 28.037 57.3001 14.4106C55.3785 12.2497 52.4586 9.4532 48.3407 7.0635C41.877 3.30098 35.7626 2.46205 32.3186 2.25867C32.2687 15.8342 32.2438 29.4098 32.1938 43.0107C35.2885 43.5446 39.0818 44.5107 43.1997 46.2902C49.5137 49.0104 54.1556 52.595 57.1753 55.3406Z" fill="url(#paint3_linear_10_1125)"/>
<path d="M102.076 62.7428C102.026 64.3953 102.001 66.0732 101.951 67.7256C102.575 67.8782 106.019 68.6663 109.413 66.5562C112.608 64.5478 113.556 61.3446 113.731 60.6582C113.731 52.8027 113.731 44.9472 113.731 37.1171C113.955 36.5832 114.379 35.7951 115.078 35.007C115.777 34.2444 116.501 33.7613 117 33.5071C116.476 33.0495 115.852 32.4139 115.253 31.6004C114.704 30.8378 114.305 30.1005 114.03 29.4904C113.805 21.8128 113.606 14.1353 113.381 6.4577C113.182 5.74588 112.632 4.14427 111.135 2.72061C109.713 1.37323 108.165 0.915625 107.466 0.763091C106.793 0.534289 105.994 0.305488 105.096 0.178376C103.848 -0.0250029 102.75 -0.0250029 101.876 0.0512642C101.876 1.65287 101.876 3.25448 101.876 4.83067C102.226 4.77983 104.272 4.5256 105.994 6.0001C107.292 7.11868 107.641 8.54234 107.741 9.02536C107.716 15.4318 107.691 21.8382 107.666 28.2447C107.991 29.0073 108.639 30.3293 109.912 31.5242C110.935 32.4902 111.984 32.9987 112.682 33.3037C112.083 33.4563 110.91 33.8122 109.787 34.8036C108.34 36.1002 107.866 37.6764 107.716 38.2865C107.716 44.7438 107.716 51.2011 107.716 57.6329C107.966 59.5142 107.192 61.3446 105.72 62.2852C104.122 63.3276 102.375 62.8191 102.076 62.7428Z" fill="url(#paint4_linear_10_1125)"/>
<path d="M98.2077 16.0165C98.2825 29.3632 98.3325 42.6846 98.4073 56.0313C95.4874 55.3958 92.1183 54.8365 88.3498 54.5822C82.7596 54.2009 77.8431 54.5822 73.8501 55.167C76.3208 54.0484 79.8397 52.7518 84.2071 52.1417C88.0753 51.6078 91.4445 51.7604 93.9401 52.0654C93.9401 40.2694 93.9401 28.4989 93.9401 16.7029C94.4143 16.4741 95.0881 16.1945 95.9117 16.0419C96.885 15.9148 97.6586 15.9402 98.2077 16.0165Z" fill="url(#paint5_linear_10_1125)"/>
<path d="M66.4128 54.6585C68.2097 53.0315 70.6804 51.1248 73.8749 49.4724C79.0908 46.803 83.9074 46.0403 87.002 45.7861C87.1517 33.7105 87.3015 21.6349 87.4512 9.55923C87.9254 9.43211 88.4994 9.33042 89.1982 9.305C89.9718 9.27958 90.6207 9.33042 91.1198 9.43211C91.1697 22.728 91.1947 36.0239 91.2446 49.3198C88.0002 49.1927 83.8575 49.3452 79.1407 50.3113C73.8499 51.4045 69.5574 53.1078 66.4128 54.6585Z" fill="url(#paint6_linear_10_1125)"/>
<path d="M59.8245 55.3195C59.7746 41.6677 59.7496 28.0159 59.6997 14.3895C61.6214 12.2286 64.5413 9.43214 68.6591 7.04244C75.1228 3.27993 81.2372 2.44099 84.7062 2.23761C84.7561 15.8132 84.781 29.3887 84.8309 42.9897C81.7363 43.5235 77.9429 44.4896 73.8251 46.2692C67.4861 48.9894 62.8442 52.5739 59.8245 55.3195Z" fill="url(#paint7_linear_10_1125)"/>
<path d="M131.992 10.676L132.016 16.076C133.248 16.076 134.312 15.924 135.208 15.62C136.104 15.3 136.76 14.916 137.176 14.468C137.592 14.004 137.896 13.516 138.088 13.004C138.28 12.492 138.344 12.028 138.28 11.612C138.232 11.196 138.12 10.892 137.944 10.7C137.64 10.38 137.152 10.18 136.48 10.1C135.824 10.004 135.12 10.02 134.368 10.148C133.616 10.26 132.824 10.436 131.992 10.676ZM132.016 17.276L132.04 23.252C134.888 23.54 136.976 23.052 138.304 21.788C139.168 20.956 139.48 20.02 139.24 18.98C139.08 18.276 138.68 17.708 138.04 17.276C136.392 17.98 134.384 17.98 132.016 17.276ZM132.04 24.524L128.68 23.78V8.444C130.008 8.076 131.616 7.876 133.504 7.844C135.408 7.812 136.552 7.94 136.936 8.228C137.432 8.548 138.096 9.108 138.928 9.908C139.776 10.708 140.44 11.388 140.92 11.948C141.128 12.284 141.232 12.7 141.232 13.196C141.232 13.692 141.056 14.268 140.704 14.924C140.352 15.564 139.88 16.108 139.288 16.556C140.584 17.308 141.64 18.148 142.456 19.076C142.728 19.396 142.832 19.852 142.768 20.444C142.704 21.036 142.456 21.652 142.024 22.292C141.592 22.932 140.936 23.5 140.056 23.996C139.192 24.492 138.096 24.804 136.768 24.932C135.456 25.076 133.88 24.94 132.04 24.524ZM156.168 10.772C154.568 9.716 152.984 9.772 151.416 10.94C150.152 11.9 149.232 13.284 148.656 15.092C148.032 17.108 148.096 18.844 148.848 20.3C149.216 21.036 149.76 21.62 150.48 22.052C152.096 23.028 153.68 22.916 155.232 21.716C156.496 20.74 157.4 19.34 157.944 17.516C158.536 15.5 158.424 13.772 157.608 12.332C157.256 11.692 156.776 11.172 156.168 10.772ZM159.912 11.948C160.52 12.54 160.976 13.244 161.28 14.06C161.584 14.86 161.728 15.684 161.712 16.532C161.712 17.364 161.576 18.212 161.304 19.076C161.048 19.94 160.688 20.748 160.224 21.5C159.776 22.236 159.232 22.9 158.592 23.492C157.952 24.068 157.264 24.508 156.528 24.812C155.792 25.116 154.992 25.244 154.128 25.196C153.264 25.148 152.416 24.884 151.584 24.404C151.456 24.324 151.224 24.196 150.888 24.02C150.568 23.844 150.336 23.724 150.192 23.66C150.064 23.58 149.864 23.46 149.592 23.3C149.32 23.124 149.088 22.972 148.896 22.844C148.72 22.7 148.496 22.532 148.224 22.34C147.968 22.132 147.704 21.908 147.432 21.668C147.16 21.428 146.872 21.156 146.568 20.852C145.976 20.292 145.536 19.62 145.248 18.836C144.976 18.052 144.848 17.244 144.864 16.412C144.896 15.58 145.04 14.74 145.296 13.892C145.552 13.028 145.904 12.22 146.352 11.468C146.816 10.7 147.36 10.02 147.984 9.428C148.608 8.82 149.264 8.348 149.952 8.012C150.656 7.66 151.408 7.484 152.208 7.484C153.008 7.484 153.792 7.692 154.56 8.108C156.64 9.228 158.424 10.508 159.912 11.948ZM175.434 10.772C173.834 9.716 172.25 9.772 170.682 10.94C169.418 11.9 168.498 13.284 167.922 15.092C167.298 17.108 167.362 18.844 168.114 20.3C168.482 21.036 169.026 21.62 169.746 22.052C171.362 23.028 172.946 22.916 174.498 21.716C175.762 20.74 176.666 19.34 177.21 17.516C177.802 15.5 177.69 13.772 176.874 12.332C176.522 11.692 176.042 11.172 175.434 10.772ZM179.178 11.948C179.786 12.54 180.242 13.244 180.546 14.06C180.85 14.86 180.994 15.684 180.978 16.532C180.978 17.364 180.842 18.212 180.57 19.076C180.314 19.94 179.954 20.748 179.49 21.5C179.042 22.236 178.498 22.9 177.858 23.492C177.218 24.068 176.53 24.508 175.794 24.812C175.058 25.116 174.258 25.244 173.394 25.196C172.53 25.148 171.682 24.884 170.85 24.404C170.722 24.324 170.49 24.196 170.154 24.02C169.834 23.844 169.602 23.724 169.458 23.66C169.33 23.58 169.13 23.46 168.858 23.3C168.586 23.124 168.354 22.972 168.162 22.844C167.986 22.7 167.762 22.532 167.49 22.34C167.234 22.132 166.97 21.908 166.698 21.668C166.426 21.428 166.138 21.156 165.834 20.852C165.242 20.292 164.802 19.62 164.514 18.836C164.242 18.052 164.114 17.244 164.13 16.412C164.162 15.58 164.306 14.74 164.562 13.892C164.818 13.028 165.17 12.22 165.618 11.468C166.082 10.7 166.626 10.02 167.25 9.428C167.874 8.82 168.53 8.348 169.218 8.012C169.922 7.66 170.674 7.484 171.474 7.484C172.274 7.484 173.058 7.692 173.826 8.108C175.906 9.228 177.69 10.508 179.178 11.948ZM187.259 9.5L187.283 17.156L194.123 8.516L197.243 9.212L191.987 15.836L198.275 25.196L195.155 24.5L190.595 17.588L187.283 21.74L187.307 25.196L183.947 24.5V21.476L183.875 21.452L183.947 21.356V8.516L187.259 9.5Z" fill="#0474C0"/>
<path d="M142.216 46.852C140.952 46.18 139.784 45.612 138.712 45.148C137.864 44.78 136.952 44.82 135.976 45.268C135.016 45.716 134.2 46.428 133.528 47.404C132.856 48.38 132.336 49.444 131.968 50.596C131.6 51.748 131.584 52.916 131.92 54.1C132.272 55.284 132.992 56.236 134.08 56.956C134.656 57.34 135.256 57.564 135.88 57.628C136.52 57.692 137.152 57.604 137.776 57.364C138.4 57.124 138.952 56.86 139.432 56.572C139.912 56.284 140.44 55.924 141.016 55.492L143.92 57.628C143.072 58.348 142.152 58.924 141.16 59.356C140.184 59.788 139.136 60.044 138.016 60.124C136.912 60.204 135.888 59.956 134.944 59.38C133.36 58.452 131.84 57.324 130.384 55.996C129.728 55.388 129.216 54.724 128.848 54.004C128.496 53.268 128.296 52.54 128.248 51.82C128.2 51.084 128.248 50.332 128.392 49.564C128.536 48.796 128.792 48.076 129.16 47.404C129.544 46.732 129.968 46.092 130.432 45.484C130.912 44.876 131.456 44.364 132.064 43.948C132.672 43.516 133.288 43.164 133.912 42.892C134.536 42.604 135.176 42.468 135.832 42.484C136.504 42.5 137.136 42.628 137.728 42.868C140.128 43.972 142.016 44.868 143.392 45.556L142.216 46.852ZM156.449 45.772C154.849 44.716 153.265 44.772 151.697 45.94C150.433 46.9 149.513 48.284 148.937 50.092C148.313 52.108 148.377 53.844 149.129 55.3C149.497 56.036 150.041 56.62 150.761 57.052C152.377 58.028 153.961 57.916 155.513 56.716C156.777 55.74 157.681 54.34 158.225 52.516C158.817 50.5 158.705 48.772 157.889 47.332C157.537 46.692 157.057 46.172 156.449 45.772ZM160.193 46.948C160.801 47.54 161.257 48.244 161.561 49.06C161.865 49.86 162.009 50.684 161.993 51.532C161.993 52.364 161.857 53.212 161.585 54.076C161.329 54.94 160.969 55.748 160.505 56.5C160.057 57.236 159.513 57.9 158.873 58.492C158.233 59.068 157.545 59.508 156.809 59.812C156.073 60.116 155.273 60.244 154.409 60.196C153.545 60.148 152.697 59.884 151.865 59.404C151.737 59.324 151.505 59.196 151.169 59.02C150.849 58.844 150.617 58.724 150.473 58.66C150.345 58.58 150.145 58.46 149.873 58.3C149.601 58.124 149.369 57.972 149.177 57.844C149.001 57.7 148.777 57.532 148.505 57.34C148.249 57.132 147.985 56.908 147.713 56.668C147.441 56.428 147.153 56.156 146.849 55.852C146.257 55.292 145.817 54.62 145.529 53.836C145.257 53.052 145.129 52.244 145.145 51.412C145.177 50.58 145.321 49.74 145.577 48.892C145.833 48.028 146.185 47.22 146.633 46.468C147.097 45.7 147.641 45.02 148.265 44.428C148.889 43.82 149.545 43.348 150.233 43.012C150.937 42.66 151.689 42.484 152.489 42.484C153.289 42.484 154.073 42.692 154.841 43.108C156.921 44.228 158.705 45.508 160.193 46.948ZM168.251 59.476H168.227L164.891 58.78V43.516L164.915 43.54V43.516C165.603 43.292 167.019 43.164 169.163 43.132C171.307 43.1 172.699 43.252 173.339 43.588C175.019 44.756 177.219 46.9 179.939 50.02C180.099 50.212 180.227 50.58 180.323 51.124C180.419 51.668 180.419 52.324 180.323 53.092C180.227 53.86 180.035 54.636 179.747 55.42C179.459 56.204 178.955 56.964 178.235 57.7C177.515 58.436 176.635 59.004 175.595 59.404C174.635 59.74 173.475 59.9 172.115 59.884C170.755 59.884 169.467 59.748 168.251 59.476ZM175.499 47.356C174.939 46.892 174.347 46.532 173.723 46.276C173.115 46.02 172.451 45.876 171.731 45.844C171.027 45.796 170.451 45.788 170.003 45.82C169.555 45.852 168.955 45.916 168.203 46.012L168.251 58.036C169.355 58.18 170.411 58.1 171.419 57.796C172.427 57.476 173.291 57.004 174.011 56.38C174.731 55.756 175.339 55.036 175.835 54.22C176.331 53.388 176.651 52.556 176.795 51.724C176.955 50.892 176.931 50.084 176.723 49.3C176.515 48.516 176.107 47.868 175.499 47.356ZM186.386 59.5L186.338 59.452L183.266 58.804V43.492H193.514L195.434 45.652H186.578V50.26H192.554L194.474 52.42H186.602V57.34H194.474L196.394 59.5H186.386Z" fill="white"/>
<defs>
<linearGradient id="paint0_linear_10_1125" x1="2.24347" y1="6" x2="34.1947" y2="15.9526" gradientUnits="userSpaceOnUse">
<stop stop-color="#0474C0"/>
<stop offset="1" stop-color="white" stop-opacity="0"/>
</linearGradient>
<linearGradient id="paint1_linear_10_1125" x1="22.2354" y1="19.5104" x2="55.0121" y2="47.6382" gradientUnits="userSpaceOnUse">
<stop stop-color="#0474C0"/>
<stop offset="1" stop-color="white" stop-opacity="0"/>
</linearGradient>
<linearGradient id="paint2_linear_10_1125" x1="29.4387" y1="13.322" x2="65.6834" y2="41.1114" gradientUnits="userSpaceOnUse">
<stop stop-color="#0474C0"/>
<stop offset="1" stop-color="white" stop-opacity="0"/>
</linearGradient>
<linearGradient id="paint3_linear_10_1125" x1="35.9182" y1="6.94237" x2="76.3597" y2="33.7318" gradientUnits="userSpaceOnUse">
<stop stop-color="#0474C0"/>
<stop offset="1" stop-color="white" stop-opacity="0"/>
</linearGradient>
<linearGradient id="paint4_linear_10_1125" x1="106.442" y1="3" x2="68.5372" y2="39.1705" gradientUnits="userSpaceOnUse">
<stop stop-color="white"/>
<stop offset="1" stop-color="white" stop-opacity="0"/>
</linearGradient>
<linearGradient id="paint5_linear_10_1125" x1="81.2645" y1="17.7188" x2="66.397" y2="56.7991" gradientUnits="userSpaceOnUse">
<stop stop-color="white"/>
<stop offset="1" stop-color="white" stop-opacity="0"/>
</linearGradient>
<linearGradient id="paint6_linear_10_1125" x1="73.9101" y1="11.2971" x2="55.6597" y2="54.1578" gradientUnits="userSpaceOnUse">
<stop stop-color="white"/>
<stop offset="1" stop-color="white" stop-opacity="0"/>
</linearGradient>
<linearGradient id="paint7_linear_10_1125" x1="67.2874" y1="4.57637" x2="43.8067" y2="52.2668" gradientUnits="userSpaceOnUse">
<stop stop-color="white"/>
<stop offset="1" stop-color="white" stop-opacity="0"/>
</linearGradient>
</defs>
</svg>
